<?xml version="1.0" encoding="UTF-8" standalone="no"?>
<svg
   version="1.1"
   viewBox="0 0 2046 604"
   id="svg184"
   sodipodi:docname="Bildschirm_foto 2023-02-14 um 17.30.44.svg"
   inkscape:version="1.2.1 (9c6d41e, 2022-07-14)"
   xmlns:inkscape="http://www.inkscape.org/namespaces/inkscape"
   xmlns:sodipodi="http://sodipodi.sourceforge.net/DTD/sodipodi-0.dtd"
   xmlns="http://www.w3.org/2000/svg"
   xmlns:svg="http://www.w3.org/2000/svg">
  <defs
     id="defs188" />
  <sodipodi:namedview
     id="namedview186"
     pagecolor="#ffffff"
     bordercolor="#000000"
     borderopacity="0.25"
     inkscape:showpageshadow="2"
     inkscape:pageopacity="0.0"
     inkscape:pagecheckerboard="0"
     inkscape:deskcolor="#d1d1d1"
     showgrid="false"
     inkscape:zoom="0.28978673"
     inkscape:cx="926.54346"
     inkscape:cy="203.598"
     inkscape:window-width="1344"
     inkscape:window-height="456"
     inkscape:window-x="190"
     inkscape:window-y="151"
     inkscape:window-maximized="0"
     inkscape:current-layer="svg184" />
  <path
     fill="rgb(69,92,158)"
     fill-opacity="1.000"
     d="M 661.08 35.56 A 0.89 0.89 78.5 0 1 662.27 36.35 Q 662.92 47.37 663.25 58.75 Q 663.52 68.06 663.75 70.00 Q 666.75 95.57 667.44 121.31 Q 669.19 138.75 670.25 156.25 Q 670.23 169.03 671.50 181.75 Q 672.67 199.63 673.85 217.51 Q 674.17 222.54 675.47 237.45 Q 677.21 257.56 677.25 277.75 Q 678.41 292.12 679.58 307.52 A 1.15 1.15 84.3 0 0 680.87 308.58 Q 683.99 308.19 686.82 308.03 Q 689.60 307.88 691.83 306.88 Q 694.33 305.77 696.81 304.59 Q 697.11 304.45 700.27 302.33 Q 702.11 301.11 704.43 300.96 A 1.37 1.22 17.3 0 0 705.27 300.58 Q 707.50 298.25 710.45 296.99 Q 712.96 295.92 713.01 295.90 Q 724.74 290.25 727.06 288.31 Q 728.59 287.04 729.94 286.53 Q 732.73 285.46 732.79 285.43 Q 747.34 277.27 761.94 269.19 Q 764.29 266.84 767.29 265.45 A 1.86 1.14 25.4 0 1 768.24 265.35 Q 769.63 265.54 770.32 264.50 Q 770.65 264.01 771.00 263.82 Q 778.82 259.59 787.50 262.25 Q 793.55 262.98 799.44 264.49 Q 802.03 265.15 805.15 265.15 Q 808.90 265.16 813.19 265.81 Q 817.67 266.50 823.22 266.33 Q 825.37 266.26 826.63 266.93 Q 828.13 267.73 829.49 269.12 A 3.10 3.07 -18.3 0 0 831.28 270.01 Q 846.70 271.93 860.37 271.76 Q 860.38 271.76 862.13 271.84 Q 864.51 271.95 866.13 270.42 Q 867.28 269.33 868.15 268.38 Q 868.99 267.46 869.37 266.23 A 1.08 1.00 88.9 0 1 869.96 265.57 Q 873.63 264.08 875.25 262.00 Q 876.93 259.85 878.74 258.86 Q 881.88 257.13 881.91 257.11 Q 889.14 251.91 897.06 247.81 Q 899.98 245.11 903.81 244.06 Q 920.01 235.28 937.75 230.25 Q 947.13 228.35 956.45 226.20 Q 967.99 223.55 975.24 222.87 Q 1009.70 219.65 1042.50 229.50 Q 1044.39 230.07 1045.86 230.29 Q 1048.60 230.71 1049.22 230.91 Q 1052.75 232.05 1055.75 234.25 Q 1058.79 235.34 1061.57 236.99 A 1.53 1.41 -31.1 0 0 1062.50 237.18 Q 1065.14 236.90 1067.17 238.24 Q 1070.13 240.21 1070.21 240.25 Q 1072.38 241.34 1074.50 242.56 A 1.92 1.16 78.6 0 1 1075.14 243.26 Q 1075.86 244.58 1077.51 244.35 Q 1078.08 244.27 1078.48 244.41 Q 1080.09 245.00 1081.33 246.12 Q 1082.97 247.59 1083.87 248.10 Q 1089.56 251.29 1094.71 255.30 Q 1095.80 256.14 1096.50 257.31 A 1.53 1.37 82.0 0 0 1097.22 257.92 Q 1102.77 260.05 1105.23 265.47 A 0.69 0.66 -33.6 0 1 1105.05 266.25 Q 1104.07 267.14 1103.77 268.44 A 2.02 1.42 81.5 0 1 1103.34 269.30 Q 1095.45 277.53 1085.31 290.06 Q 1076.57 300.87 1035.50 349.25 Q 1032.95 350.83 1031.72 353.52 Q 1030.46 356.29 1027.75 357.75 Q 1025.97 358.71 1024.72 362.33 A 1.60 1.58 -9.0 0 1 1024.15 363.11 Q 1022.04 364.65 1021.31 365.81 Q 1016.92 372.80 1011.69 379.19 Q 1010.20 382.92 1007.39 385.68 Q 1005.73 387.31 1004.75 388.87 Q 1003.46 390.94 1002.25 392.25 Q 993.98 401.18 988.06 411.82 Q 987.25 413.28 988.79 412.65 Q 997.10 409.24 1004.93 404.78 Q 1015.20 398.91 1017.34 397.60 Q 1024.22 393.39 1028.56 388.56 Q 1035.91 380.41 1041.44 370.94 Q 1046.26 364.42 1052.01 357.50 A 1.27 1.27 46.9 0 1 1054.01 357.57 Q 1056.53 361.04 1059.24 363.63 Q 1060.35 364.70 1061.65 366.83 Q 1063.19 369.35 1066.33 371.78 A 4.24 4.17 -81.7 0 1 1067.71 373.67 Q 1068.93 376.98 1071.81 378.44 Q 1073.33 379.21 1075.06 382.94 Q 1087.21 397.30 1099.06 411.92 Q 1099.81 412.85 1101.75 414.18 Q 1103.48 415.37 1104.02 417.04 Q 1104.66 419.01 1106.30 420.27 Q 1110.19 423.27 1110.97 426.94 A 1.20 1.14 11.1 0 0 1111.50 427.69 Q 1113.08 428.67 1113.69 430.56 Q 1114.91 432.78 1116.03 435.05 A 1.17 1.14 42.7 0 1 1116.08 435.96 Q 1114.49 440.08 1111.94 443.69 Q 1110.02 448.78 1106.31 452.81 Q 1101.23 459.55 1094.78 465.00 Q 1072.26 484.06 1044.44 493.94 Q 1038.41 495.84 1032.46 497.98 Q 1011.18 505.63 985.00 510.00 Q 970.07 512.49 959.25 512.50 Q 947.00 512.50 934.76 512.50 Q 923.41 512.50 914.81 511.37 Q 902.20 509.72 889.76 506.96 Q 886.25 506.18 883.67 508.47 A 1.35 1.20 74.4 0 0 883.26 509.31 Q 882.14 519.76 882.71 530.25 Q 883.15 538.24 883.00 546.25 Q 883.71 552.34 884.31 558.44 Q 885.41 565.61 884.91 572.83 Q 884.91 572.89 884.27 576.61 Q 883.58 580.63 886.28 583.61 Q 887.57 585.03 885.66 585.23 Q 881.75 585.64 878.36 584.08 Q 872.21 581.25 869.06 578.19 Q 867.89 577.05 867.08 576.59 Q 865.90 575.92 865.88 575.90 Q 816.58 539.52 766.44 504.31 Q 733.93 480.90 702.00 458.38 Q 699.90 456.91 699.44 459.42 Q 699.07 461.45 697.63 462.56 Q 695.75 464.02 695.51 464.60 Q 694.84 466.21 695.25 468.50 Q 697.26 479.68 697.29 495.00 Q 697.33 513.41 699.00 531.75 Q 699.45 549.05 699.50 549.75 Q 700.13 558.22 699.48 566.69 A 0.58 0.57 1.1 0 1 698.93 567.21 Q 681.94 567.84 665.00 569.25 Q 621.41 569.71 577.83 569.44 A 0.39 0.39 89.2 0 1 577.44 569.06 Q 577.27 561.49 576.80 554.00 Q 576.69 552.24 575.43 539.01 Q 574.32 527.29 574.25 515.50 Q 571.55 494.52 571.44 473.39 Q 571.36 456.62 571.36 456.61 Q 570.84 437.16 568.69 417.80 A 0.70 0.70 -16.1 0 0 567.69 417.25 Q 564.64 418.74 561.83 420.48 Q 560.06 421.57 558.79 423.61 Q 557.19 426.18 555.35 428.59 Q 548.15 438.06 540.53 447.20 Q 532.96 456.28 527.19 462.07 Q 492.25 497.14 444.07 509.35 Q 433.71 511.98 424.37 512.60 Q 403.48 514.00 383.00 508.74 Q 367.93 504.87 353.98 497.97 Q 344.26 493.16 336.49 485.88 Q 330.37 480.14 323.08 471.06 Q 314.64 460.55 309.00 448.21 Q 306.06 441.78 306.03 441.73 Q 304.06 437.54 302.19 433.31 Q 301.49 431.95 301.42 430.45 Q 301.34 428.59 300.98 427.64 Q 298.31 420.57 296.19 413.31 Q 294.42 408.31 294.50 403.00 Q 292.98 393.81 292.66 384.50 Q 291.72 356.98 295.00 336.25 Q 295.82 331.06 298.56 322.36 Q 300.85 315.09 303.72 309.02 Q 318.68 277.31 346.94 254.69 Q 360.04 244.20 362.99 241.99 Q 378.69 230.25 393.50 224.00 Q 411.32 216.48 413.06 216.06 Q 419.51 214.54 425.93 212.92 Q 432.12 211.35 438.50 211.50 Q 458.72 211.45 478.94 211.56 A 1.50 1.15 -18.9 0 1 479.84 211.86 L 483.39 214.90 A 1.59 1.23 60.8 0 0 484.26 215.27 Q 490.19 215.51 496.04 216.47 Q 498.61 216.89 501.64 218.43 Q 504.40 219.84 507.31 220.94 Q 508.88 221.89 510.40 222.91 A 1.64 1.37 -25.2 0 0 511.31 223.15 Q 512.96 223.07 514.41 223.86 Q 520.27 227.07 526.34 229.89 Q 531.33 232.21 536.28 236.01 Q 536.82 236.43 537.43 236.72 Q 540.51 238.17 542.40 239.94 Q 544.86 242.23 544.89 242.26 Q 548.74 245.43 551.56 248.69 Q 553.52 250.95 555.41 252.39 A 0.58 0.57 -48.6 0 0 556.17 252.34 Q 560.49 248.06 560.50 243.00 Q 560.51 229.26 558.00 215.74 Q 557.55 213.31 557.50 210.84 Q 557.08 189.88 557.25 168.75 Q 557.28 164.50 554.31 153.04 A 0.65 0.63 -6.8 0 0 553.68 152.56 Q 537.92 152.37 536.25 152.50 Q 530.22 152.97 523.69 156.44 Q 520.98 157.87 517.31 157.17 A 0.45 0.45 14.8 0 1 516.97 156.59 Q 520.08 147.47 521.75 138.00 Q 524.13 129.07 526.69 120.19 Q 527.67 112.74 528.25 105.25 Q 529.82 97.10 532.64 89.28 A 1.18 1.14 -2.2 0 1 533.28 88.61 Q 544.98 83.60 556.94 79.19 Q 570.81 72.98 584.81 67.06 Q 592.74 63.00 601.04 59.76 Q 607.13 57.38 613.00 54.50 Q 614.91 54.00 616.80 53.47 Q 618.62 52.96 620.47 52.10 Q 640.35 42.81 661.08 35.56 Z M 672.96 540.00 Q 673.52 534.75 673.00 529.50 Q 672.65 518.98 671.81 508.50 Q 669.99 485.91 670.31 463.25 Q 670.72 434.72 668.88 404.29 Q 668.85 403.77 669.29 404.05 Q 673.30 406.56 676.75 407.29 Q 677.43 408.88 678.83 409.91 Q 749.78 462.30 820.61 514.83 Q 820.67 514.87 831.09 522.42 Q 837.59 527.12 843.81 532.19 Q 850.47 536.56 857.80 540.31 Q 859.84 541.35 859.94 539.06 Q 860.70 521.86 858.65 505.93 Q 858.23 502.63 857.42 500.16 Q 856.50 497.32 855.23 494.64 Q 854.70 493.54 853.83 492.69 Q 848.96 487.89 845.19 484.81 Q 841.99 482.20 733.32 403.66 Q 728.85 400.43 724.06 397.69 Q 719.83 394.08 714.79 391.75 L 710.21 386.78 A 0.97 0.95 -41.0 0 1 710.32 385.39 Q 721.96 375.95 733.50 368.25 Q 735.46 366.02 738.00 364.45 Q 738.37 364.22 738.93 364.17 Q 740.66 364.04 741.37 362.53 A 2.01 1.38 -84.8 0 1 741.99 361.78 Q 749.28 356.94 756.01 351.36 Q 756.75 350.75 759.44 349.33 Q 761.60 348.19 763.69 345.69 Q 765.20 343.87 768.71 342.82 A 1.73 1.61 10.7 0 0 769.52 342.31 Q 770.12 341.63 770.69 340.94 Q 782.91 332.34 783.00 332.25 Q 784.93 330.19 787.35 328.81 Q 790.13 327.23 791.63 325.93 Q 795.04 322.99 798.89 320.61 Q 802.31 318.49 805.31 315.81 Q 810.94 313.04 815.29 308.50 Q 817.32 308.11 818.19 307.44 Q 821.62 304.81 825.03 302.73 Q 827.27 301.38 825.07 299.95 Q 822.84 298.49 820.58 297.08 Q 818.25 295.63 815.74 295.02 Q 808.77 293.32 803.25 293.25 Q 795.86 293.15 788.50 292.50 Q 782.79 292.93 777.06 293.06 Q 769.10 296.13 761.92 300.73 A 1.79 1.53 24.7 0 1 761.00 300.99 Q 758.11 300.98 755.91 302.59 Q 753.82 304.12 752.59 304.67 Q 749.93 305.87 747.64 307.69 A 1.40 1.29 25.2 0 1 746.75 307.97 Q 743.49 307.88 741.06 310.06 Q 740.62 310.46 731.94 314.78 A 1.95 1.27 23.3 0 1 731.00 314.94 Q 729.54 314.83 728.19 315.69 Q 723.53 318.62 717.20 321.78 Q 716.80 321.98 716.25 321.95 Q 714.34 321.85 713.06 323.31 Q 712.79 323.63 703.14 328.70 Q 702.73 328.92 702.19 328.90 Q 700.18 328.84 698.75 330.25 Q 698.14 330.86 693.75 332.90 Q 692.69 333.40 691.10 334.57 Q 689.49 335.77 688.19 335.88 Q 686.70 336.00 685.35 336.65 Q 678.69 339.81 673.69 342.19 Q 665.73 344.40 658.29 348.00 Q 656.85 339.05 656.25 330.00 Q 656.52 318.10 655.60 306.24 Q 653.85 283.77 652.75 261.25 Q 650.62 247.08 650.25 232.75 Q 649.30 216.64 648.87 200.50 Q 648.69 193.66 647.50 182.00 Q 646.43 171.48 645.32 153.24 Q 644.97 147.42 643.88 133.29 Q 642.56 116.24 642.25 97.50 Q 642.17 92.47 641.21 85.75 Q 641.11 77.85 638.84 70.30 A 0.48 0.47 71.0 0 0 638.22 69.99 Q 620.92 76.70 603.89 84.08 Q 592.35 89.08 580.81 94.06 Q 572.38 96.93 564.46 100.98 Q 561.87 102.30 559.04 102.96 A 1.70 1.62 14.5 0 0 558.21 103.42 Q 556.07 105.55 553.92 107.67 Q 550.32 111.22 549.62 116.20 A 0.43 0.43 2.9 0 0 550.06 116.68 Q 554.07 116.57 554.75 116.25 Q 566.16 110.98 577.42 105.45 A 0.58 0.58 78.0 0 1 578.25 105.99 Q 578.03 111.32 578.94 116.56 Q 579.80 121.59 580.67 141.99 Q 581.12 152.40 582.32 162.74 Q 583.42 172.31 583.50 183.25 Q 583.60 197.88 585.25 214.00 Q 585.25 214.00 585.25 245.75 Q 587.29 265.63 589.10 285.54 Q 589.92 294.50 590.42 305.48 Q 591.16 321.88 592.25 338.25 Q 592.36 375.18 595.25 412.00 Q 594.64 430.48 596.54 448.81 Q 598.02 463.17 598.25 468.74 Q 598.73 480.11 598.75 491.50 Q 599.34 498.49 599.29 505.50 Q 599.24 513.64 599.77 521.77 Q 600.43 531.99 600.23 543.20 A 0.94 0.93 8.6 0 0 600.91 544.11 Q 608.86 546.41 615.75 546.25 Q 638.00 546.39 660.25 546.28 Q 666.35 546.25 672.21 544.58 A 0.90 0.88 -0.8 0 0 672.83 543.96 Q 673.34 542.03 672.96 540.00 Z M 384.75 478.71 Q 397.41 482.84 410.75 482.62 Q 424.03 482.40 436.84 478.92 Q 440.41 477.95 444.06 477.31 Q 473.34 467.54 494.31 449.56 Q 521.95 425.86 537.21 390.23 Q 537.25 390.12 539.42 385.33 Q 540.84 382.21 541.81 378.92 Q 543.45 373.37 543.48 373.26 Q 553.03 343.08 546.99 311.75 Q 546.59 309.65 545.71 307.75 Q 543.38 297.05 541.56 292.94 Q 533.25 274.10 518.86 259.71 Q 513.19 254.04 509.07 250.90 Q 504.10 247.10 497.81 243.94 Q 488.48 239.25 479.04 237.80 Q 475.39 237.24 468.42 237.25 Q 463.09 237.26 457.75 237.28 Q 443.02 237.34 429.36 242.47 Q 429.34 242.48 424.06 244.31 Q 420.62 245.51 415.44 247.94 Q 384.55 262.40 362.01 284.51 Q 353.47 292.88 347.94 299.19 Q 336.12 312.66 329.44 330.19 Q 326.28 338.46 324.28 345.31 Q 322.52 351.31 322.07 358.53 Q 320.56 382.27 322.50 406.00 Q 322.43 409.29 323.69 412.31 Q 324.84 415.87 326.23 419.35 Q 327.57 422.68 328.90 426.35 Q 336.95 448.56 354.32 464.34 Q 358.65 468.28 363.72 471.50 Q 369.61 475.25 374.25 477.00 Q 377.68 478.30 384.75 478.71 Z M 872.25 465.71 Q 897.32 487.40 932.00 489.50 Q 966.66 491.60 997.52 484.10 Q 1035.26 474.93 1067.75 453.75 Q 1075.19 448.90 1082.55 441.06 Q 1086.44 436.91 1086.98 435.57 Q 1088.45 431.89 1084.42 427.79 Q 1082.49 425.82 1081.41 423.28 Q 1081.17 422.72 1079.05 420.97 Q 1077.02 419.30 1075.74 417.08 Q 1074.31 414.60 1073.15 413.34 Q 1070.56 410.50 1068.46 407.25 Q 1067.97 406.15 1065.75 403.75 Q 1062.27 399.98 1058.59 395.95 A 0.63 0.62 48.7 0 0 1057.72 395.89 Q 1051.23 401.46 1044.81 407.20 Q 1036.82 414.33 1031.56 418.05 Q 1001.47 439.31 964.95 446.76 Q 951.95 449.41 940.75 447.25 Q 938.24 446.77 937.25 447.04 L 931.37 446.14 A 1.90 0.66 55.8 0 1 930.31 445.35 L 927.09 441.61 A 0.58 0.46 45.9 0 1 927.02 440.93 Q 933.33 433.55 940.00 426.50 Q 941.96 422.54 945.69 420.19 Q 946.43 419.34 946.91 418.34 Q 947.49 417.10 948.03 416.48 Q 963.76 398.24 971.06 389.06 Q 973.14 386.45 974.78 385.23 Q 975.19 384.92 975.40 384.49 Q 976.82 381.52 979.04 379.11 Q 979.26 378.87 981.08 377.62 Q 982.19 376.85 982.68 375.48 Q 983.76 372.47 986.44 370.69 Q 1020.79 329.46 1055.69 288.69 Q 1060.10 283.54 1061.29 281.25 Q 1068.19 277.34 1069.19 269.49 A 1.45 1.38 -57.6 0 0 1069.01 268.57 Q 1067.53 266.07 1064.95 265.22 Q 1061.60 264.11 1061.12 263.86 Q 1052.49 259.49 1043.06 257.19 Q 1032.57 252.98 1019.00 250.75 Q 1008.91 249.09 1000.04 248.53 Q 990.62 247.94 980.96 248.10 Q 969.19 248.30 957.58 250.39 Q 955.20 250.81 953.02 251.05 Q 949.16 251.46 948.44 251.69 Q 934.15 256.10 920.56 262.31 Q 918.84 263.81 916.87 264.94 A 1.87 1.35 23.2 0 1 915.94 265.15 Q 913.21 265.08 911.56 267.31 Q 905.55 271.74 900.29 277.04 Q 894.35 283.02 888.33 288.93 Q 881.02 296.12 877.04 301.40 Q 866.58 315.24 859.74 331.21 Q 857.37 336.74 854.13 346.86 Q 850.29 358.86 849.25 362.75 Q 847.63 368.83 848.00 376.50 Q 846.37 399.12 847.94 421.75 Q 848.79 433.96 854.69 444.63 A 1.92 1.43 -65.9 0 1 854.90 445.57 Q 854.87 446.85 855.35 447.99 Q 855.50 448.34 855.97 448.71 Q 856.77 449.33 857.44 450.56 Q 862.54 459.97 872.25 465.71 Z M 803.56 350.35 Q 800.24 352.11 797.75 355.00 Q 779.10 368.92 760.81 383.31 Q 757.64 385.81 760.56 388.19 Q 764.67 392.71 769.34 396.66 Q 786.35 411.05 804.32 424.22 Q 810.97 429.10 818.38 432.45 A 0.45 0.44 -78.0 0 0 819.00 432.04 Q 819.00 412.75 819.00 394.00 Q 819.00 379.23 819.84 364.49 Q 820.29 356.67 822.75 349.25 Q 823.78 342.65 822.25 336.89 A 0.82 0.81 61.1 0 0 820.91 336.50 Q 814.72 342.31 808.31 346.56 Q 807.01 347.42 805.94 348.53 Q 804.83 349.68 803.56 350.35 Z"
     id="path98" />
  <path
     fill="rgb(69,92,158)"
     fill-opacity="1.000"
     d="M 246.00 58.25 Q 250.26 58.57 255.60 59.48 Q 264.67 61.03 273.75 62.51 Q 280.08 63.54 286.03 65.91 Q 322.94 80.58 342.44 114.06 Q 345.24 118.88 346.95 125.01 Q 348.52 130.67 348.46 136.63 Q 348.35 146.77 345.00 156.50 Q 344.16 159.59 343.19 162.64 Q 342.25 165.61 340.76 168.55 Q 328.61 192.53 311.96 213.59 Q 302.90 225.05 302.82 225.16 Q 283.45 250.02 261.29 272.40 Q 252.32 281.46 247.18 286.58 Q 234.59 299.13 222.19 309.44 Q 219.73 311.48 218.08 313.79 Q 216.38 316.17 216.42 319.26 Q 216.48 323.12 217.75 327.25 Q 229.05 363.89 238.75 401.00 Q 248.13 430.84 251.50 445.50 Q 253.79 455.46 257.50 463.50 Q 258.69 466.08 258.49 468.45 A 1.29 1.11 -20.8 0 1 258.05 469.26 Q 253.74 472.85 249.44 476.44 Q 231.20 490.27 212.56 503.56 Q 201.00 512.17 188.62 519.73 A 1.50 1.50 -27.2 0 1 186.46 519.04 Q 179.31 502.16 174.00 485.00 Q 170.74 474.48 167.56 467.94 Q 164.87 457.55 160.60 447.71 Q 160.07 446.50 159.61 444.00 Q 159.29 442.30 158.50 440.25 Q 155.76 433.18 152.81 426.19 Q 152.63 425.14 152.55 424.07 Q 152.47 422.92 152.10 422.00 Q 148.87 414.00 145.81 405.94 Q 145.58 403.83 144.94 401.81 Q 141.23 391.76 137.56 381.69 Q 137.55 379.98 136.89 378.40 Q 128.35 358.01 122.25 336.75 Q 110.35 304.06 109.56 301.44 Q 106.93 292.70 103.06 284.44 Q 102.72 283.14 102.59 281.82 Q 102.43 280.34 101.99 279.27 Q 97.55 268.51 97.25 267.50 Q 94.17 257.23 90.25 247.25 Q 89.40 245.08 88.87 242.83 Q 88.21 239.98 87.63 238.39 Q 84.02 228.56 80.94 218.56 Q 78.38 213.97 75.06 209.88 A 0.60 0.59 -33.8 0 0 74.31 209.74 Q 65.85 214.42 59.69 221.94 Q 56.58 224.42 52.71 226.50 A 0.60 0.60 -32.9 0 1 51.95 226.34 Q 47.64 220.68 45.31 214.57 Q 43.59 210.06 43.55 209.98 Q 39.55 200.35 39.50 200.25 Q 38.82 198.94 38.68 197.49 Q 38.52 195.61 38.18 194.73 Q 35.32 187.31 32.31 179.94 Q 30.84 173.54 27.77 167.71 Q 25.67 163.71 24.69 159.31 Q 23.92 155.86 18.06 141.69 Q 16.63 135.57 13.81 129.94 Q 10.30 122.91 6.93 109.54 A 0.56 0.56 72.3 0 1 7.27 108.88 Q 19.87 103.69 24.06 102.81 Q 28.53 101.88 31.37 100.60 Q 35.34 98.81 35.38 98.79 Q 42.33 96.33 49.69 95.44 Q 63.83 89.45 67.25 89.00 Q 74.55 88.04 82.31 84.31 Q 85.47 82.80 90.50 81.75 Q 93.69 81.77 96.73 80.83 Q 105.85 77.99 114.99 75.20 Q 116.30 74.80 117.66 74.74 Q 119.35 74.65 120.30 74.39 Q 139.21 69.16 141.00 68.75 Q 146.05 67.60 151.25 67.50 Q 168.11 63.43 176.75 61.75 Q 180.65 60.99 185.74 60.68 Q 190.96 60.36 194.72 59.86 Q 220.53 56.36 246.00 58.25 Z M 67.75 180.54 L 70.75 179.21 Q 79.19 175.95 82.50 175.75 Q 87.05 175.48 89.44 177.56 Q 93.82 181.40 95.81 188.69 Q 96.48 191.12 101.56 202.94 Q 104.41 213.62 108.69 223.81 Q 111.20 233.77 115.18 243.22 Q 115.94 245.04 116.51 248.08 Q 116.98 250.60 118.02 252.96 Q 121.04 259.74 123.08 266.83 Q 124.95 273.35 126.42 277.09 Q 130.25 286.80 130.31 287.19 Q 130.50 288.26 130.55 289.35 Q 130.60 290.52 130.99 291.44 Q 135.12 301.25 138.00 311.50 Q 140.98 319.86 144.06 328.19 Q 147.58 339.48 151.70 350.58 Q 152.17 351.87 152.73 354.66 Q 153.15 356.74 154.04 358.70 Q 156.88 364.91 158.80 371.42 Q 160.82 378.26 162.50 382.74 Q 164.68 388.55 166.45 394.52 Q 168.65 401.93 171.49 409.13 Q 172.52 411.75 173.43 415.53 Q 174.31 419.14 175.56 421.94 Q 179.28 430.21 181.00 437.25 Q 181.46 439.12 187.00 452.75 Q 189.18 461.71 192.56 470.29 Q 193.72 473.23 194.31 475.99 Q 194.92 478.85 195.58 481.87 A 1.12 1.12 -13.6 0 0 196.96 482.71 Q 203.79 480.89 209.04 477.50 Q 212.80 475.78 215.97 473.19 Q 218.03 471.50 220.36 470.37 Q 224.37 468.42 227.81 465.51 A 0.96 0.92 67.2 0 0 228.13 464.68 Q 226.90 454.67 224.00 445.00 Q 223.45 441.91 222.94 438.81 Q 219.93 429.56 216.94 420.31 Q 216.49 418.90 216.44 417.44 Q 216.39 415.67 216.05 414.62 Q 208.76 392.07 208.75 392.00 Q 208.43 390.17 208.44 388.31 Q 204.87 377.94 202.09 367.34 Q 199.93 359.12 198.60 354.75 Q 196.69 348.50 194.75 342.25 Q 194.54 341.09 194.50 339.92 Q 194.45 338.61 194.13 337.64 Q 187.59 318.18 187.56 317.94 Q 187.05 312.65 185.67 307.52 Q 184.77 304.18 186.31 302.31 Q 189.42 298.56 196.50 293.25 Q 200.70 290.11 214.96 277.75 L 237.75 254.79 Q 257.39 234.06 275.42 211.92 Q 289.89 194.14 301.93 174.63 Q 309.82 161.84 314.55 147.56 Q 315.64 144.24 315.50 140.75 Q 317.07 135.37 315.50 130.00 Q 315.89 126.57 313.81 123.94 Q 309.89 117.26 304.94 111.31 Q 302.35 109.20 300.47 106.48 A 1.25 0.73 65.7 0 0 299.70 105.93 L 296.75 105.71 Q 297.14 104.36 298.54 104.07 Q 300.22 103.72 298.79 102.78 Q 285.95 94.29 271.40 89.51 Q 269.33 88.83 266.50 88.60 Q 263.99 88.39 261.50 87.98 Q 242.62 84.80 223.50 86.01 Q 210.97 86.81 198.50 88.25 Q 189.44 88.51 180.56 90.32 Q 170.25 92.42 160.02 94.87 Q 158.00 95.36 155.28 95.56 Q 152.52 95.77 150.50 96.25 Q 147.60 96.93 131.44 101.69 Q 120.25 103.83 109.43 107.40 Q 103.24 109.45 101.50 109.50 Q 98.08 109.61 94.94 110.94 Q 87.48 113.19 80.06 115.56 Q 71.72 117.29 63.60 119.82 Q 56.55 122.01 51.75 123.20 Q 45.81 124.67 39.83 126.30 A 1.33 1.32 -16.3 0 0 38.91 127.97 Q 41.22 135.28 43.61 142.27 Q 43.62 142.30 46.33 150.68 Q 48.28 156.73 51.00 162.50 Q 54.23 172.82 58.77 183.38 A 0.79 0.78 75.2 0 0 59.57 183.85 Q 64.88 183.38 67.75 180.54 Z"
     id="path100" />
  <path
     fill="rgb(69,92,158)"
     fill-opacity="1.000"
     d="M 990.99 57.71 Q 994.39 56.83 995.20 59.70 A 1.33 1.27 9.7 0 0 995.74 60.43 Q 997.06 61.28 997.08 62.95 A 2.05 1.50 -68.5 0 0 997.32 63.87 Q 1003.48 74.12 1010.31 83.94 Q 1011.67 87.56 1014.44 90.31 Q 1017.94 95.90 1021.61 101.38 Q 1021.99 101.96 1023.31 103.21 Q 1024.29 104.13 1024.73 105.39 Q 1025.58 107.80 1025.93 108.27 Q 1026.57 109.13 1027.37 109.87 Q 1028.26 110.70 1028.74 111.49 Q 1038.19 127.45 1049.17 142.40 Q 1050.50 144.20 1050.68 145.83 Q 1050.87 147.55 1050.65 149.69 A 0.70 0.70 -85.0 0 1 1049.90 150.32 Q 1043.70 149.83 1038.56 151.07 Q 1010.94 157.71 998.25 159.25 Q 983.30 161.07 968.74 164.97 Q 965.30 165.89 961.74 166.11 Q 955.34 166.51 949.11 168.00 Q 932.93 171.87 923.75 173.25 Q 919.92 173.82 913.07 173.35 A 0.88 0.88 18.7 0 0 912.29 173.73 Q 909.40 178.01 904.00 177.25 Q 898.01 177.90 891.99 177.63 Q 885.81 177.36 880.73 173.97 A 0.89 0.74 -73.0 0 1 880.40 173.19 L 881.18 165.06 A 0.64 0.56 10.9 0 0 880.70 164.44 Q 876.67 163.36 874.22 159.97 A 1.52 1.24 -5.7 0 0 873.45 159.46 Q 872.21 159.12 871.56 157.94 Q 868.74 152.77 865.62 147.78 Q 865.61 147.77 863.40 145.12 Q 862.51 144.04 862.15 142.66 Q 861.72 140.99 861.20 140.17 Q 858.10 135.29 855.38 129.81 A 0.53 0.52 -27.1 0 1 855.61 129.11 Q 898.72 106.65 940.81 83.06 Q 947.48 79.32 957.46 76.81 A 0.60 0.53 -12.4 0 0 957.91 76.19 Q 957.71 75.00 956.30 74.68 Q 954.81 74.35 956.15 73.63 Q 961.93 70.51 968.57 68.48 Q 971.95 67.45 974.36 67.65 A 1.61 1.60 89.7 0 0 976.09 65.89 Q 975.86 63.63 976.89 62.62 Q 977.21 62.31 979.57 61.39 Q 985.17 59.21 990.99 57.71 Z M 980.00 140.29 L 987.75 138.71 Q 1001.40 139.24 1014.58 133.66 A 1.02 1.02 -35.3 0 0 1014.87 131.97 Q 1012.53 129.86 1011.25 127.25 Q 1010.48 124.40 1008.31 122.44 Q 1003.24 113.52 997.44 105.06 Q 991.29 94.95 982.13 86.15 A 1.17 1.17 52.8 0 0 980.78 85.96 L 886.73 136.24 A 1.11 1.10 64.2 0 0 886.24 137.65 Q 889.03 144.17 891.31 150.19 Q 892.15 152.39 894.35 153.97 A 1.51 1.29 -24.4 0 0 895.25 154.23 Q 904.17 153.81 913.00 152.50 Q 919.63 152.80 926.00 151.00 Q 937.39 148.84 948.75 146.50 Q 949.62 146.32 948.97 146.21 Q 948.83 146.19 948.97 146.18 Q 964.80 144.91 980.00 140.29 Z"
     id="path102" />
  <path
     fill="rgb(69,92,158)"
     fill-opacity="1.000"
     d="M 1263.75 57.86 Q 1273.82 58.24 1283.75 60.01 Q 1287.46 60.67 1291.22 60.78 Q 1298.24 60.97 1298.28 60.97 Q 1308.37 61.76 1318.19 64.31 Q 1324.17 66.31 1330.27 67.94 Q 1340.32 70.64 1349.20 75.70 Q 1357.14 80.23 1365.46 87.32 Q 1383.07 102.34 1393.81 124.44 Q 1394.66 126.17 1394.75 127.26 Q 1394.80 127.84 1394.99 128.19 Q 1398.04 133.74 1400.81 139.44 Q 1401.48 140.81 1401.79 142.28 Q 1402.13 143.96 1402.74 145.04 Q 1406.22 151.24 1408.50 158.00 Q 1408.61 158.33 1408.82 160.38 Q 1408.95 161.60 1409.28 162.71 Q 1411.88 171.46 1414.99 180.04 Q 1416.03 182.92 1415.80 186.00 A 1.38 1.13 33.0 0 0 1416.08 186.88 Q 1416.61 187.58 1416.73 188.44 Q 1416.90 189.70 1417.01 190.04 Q 1419.60 197.97 1421.75 210.25 Q 1423.02 217.54 1422.75 222.00 Q 1425.25 247.71 1426.72 273.49 A 0.59 0.56 89.9 0 0 1427.25 274.04 Q 1434.09 274.48 1438.68 269.79 Q 1440.50 267.93 1440.52 267.91 Q 1455.48 253.91 1473.85 244.77 Q 1485.10 239.17 1496.75 234.50 Q 1501.58 232.24 1506.71 231.03 Q 1515.48 228.97 1515.57 228.94 Q 1537.34 223.04 1561.50 221.75 Q 1569.23 221.34 1576.11 221.96 Q 1580.54 222.36 1590.55 223.70 Q 1602.91 225.35 1614.75 229.37 Q 1616.75 230.05 1619.90 230.32 Q 1625.48 230.80 1630.19 234.06 Q 1632.10 234.71 1633.85 235.66 Q 1635.85 236.75 1637.51 237.12 Q 1644.25 238.63 1650.94 240.31 Q 1651.45 240.44 1651.28 239.96 Q 1650.15 236.85 1647.06 232.44 Q 1637.11 218.22 1626.56 204.44 Q 1624.83 202.06 1622.56 200.19 Q 1621.56 198.60 1621.30 196.75 Q 1621.23 196.23 1620.96 195.85 Q 1618.42 192.22 1617.55 188.75 A 1.10 1.10 -3.8 0 1 1618.74 187.39 Q 1648.79 190.72 1678.25 191.73 Q 1680.56 191.80 1698.25 191.91 Q 1717.05 192.02 1735.75 194.25 Q 1750.12 193.83 1758.25 194.75 Q 1760.60 195.02 1762.28 197.36 Q 1763.39 198.91 1763.42 198.96 Q 1792.18 235.14 1819.81 272.19 Q 1823.10 274.67 1826.96 274.04 Q 1829.14 273.69 1830.84 271.82 Q 1831.89 270.68 1832.75 269.39 Q 1834.15 267.29 1834.50 266.82 Q 1852.17 243.46 1869.94 220.19 Q 1876.34 211.04 1883.44 202.44 Q 1886.30 198.41 1890.32 195.66 Q 1891.99 194.52 1894.12 194.34 Q 1896.41 194.15 1898.25 194.25 Q 1907.47 194.77 1915.25 194.25 Q 1924.60 193.01 1934.00 192.25 Q 1951.75 191.88 1969.50 191.48 Q 1978.81 191.27 1989.48 190.56 Q 2011.02 189.14 2031.80 188.30 Q 2034.11 188.20 2033.04 190.25 Q 2029.22 197.50 2024.25 203.75 Q 1997.06 239.17 1969.69 274.44 Q 1919.78 338.73 1899.81 365.06 Q 1898.47 366.83 1896.94 370.53 A 1.38 1.37 -43.3 0 0 1896.91 371.48 Q 1898.41 375.76 1901.09 379.42 Q 1927.10 414.82 1953.91 449.61 Q 1986.89 492.39 2018.76 536.01 Q 2019.11 536.50 2018.51 536.50 Q 1995.24 536.68 1972.00 535.60 Q 1959.25 535.01 1946.50 534.75 Q 1941.98 534.33 1937.48 534.58 Q 1928.54 535.08 1928.50 535.08 Q 1914.96 535.19 1901.50 533.50 Q 1892.94 533.68 1882.34 531.88 Q 1880.66 531.60 1879.57 530.30 Q 1871.36 520.59 1863.04 509.48 Q 1843.06 482.84 1828.94 466.56 Q 1826.68 463.96 1823.84 465.09 Q 1822.34 465.69 1820.26 468.12 Q 1805.89 484.87 1796.56 497.56 Q 1782.72 516.39 1769.14 530.67 Q 1767.41 532.49 1765.75 532.97 Q 1764.38 533.36 1762.92 533.35 Q 1760.21 533.33 1760.09 533.34 Q 1729.45 535.32 1698.75 535.00 Q 1688.38 535.41 1678.00 535.75 Q 1664.25 536.75 1650.49 535.88 Q 1641.99 535.35 1633.24 537.29 Q 1632.06 537.55 1632.45 536.40 Q 1634.26 531.17 1638.08 526.35 Q 1647.30 514.72 1656.00 502.70 Q 1663.16 492.83 1667.89 486.62 Q 1681.23 469.13 1689.44 457.69 Q 1697.33 446.69 1704.76 437.52 Q 1715.93 423.72 1715.93 423.71 Q 1730.30 405.40 1744.31 386.81 Q 1750.99 379.61 1753.20 370.23 Q 1753.63 368.37 1752.47 366.85 Q 1721.12 326.18 1689.31 285.94 Q 1683.63 277.45 1677.69 273.06 Q 1675.11 271.16 1672.68 273.93 Q 1667.35 280.03 1662.07 286.17 Q 1657.90 291.02 1651.76 298.65 Q 1635.56 318.76 1616.94 339.44 Q 1612.53 344.33 1608.08 350.12 Q 1602.55 357.31 1599.44 360.97 Q 1585.14 377.79 1571.00 394.75 Q 1563.25 403.16 1557.69 412.84 Q 1557.11 413.85 1558.28 413.82 Q 1563.96 413.70 1568.68 411.66 Q 1577.78 407.70 1585.78 402.01 Q 1592.92 396.93 1600.38 389.07 Q 1613.27 375.49 1621.44 360.19 Q 1622.98 357.30 1624.13 356.10 A 0.56 0.56 41.9 0 1 1624.89 356.06 Q 1627.01 357.76 1629.69 360.81 Q 1651.51 385.70 1672.31 411.44 Q 1682.22 422.13 1690.15 434.26 A 1.76 1.73 41.7 0 1 1690.26 435.99 Q 1675.74 465.19 1646.94 480.44 Q 1617.57 495.98 1590.25 503.75 Q 1584.08 505.50 1571.75 507.50 Q 1561.57 509.87 1551.25 511.33 Q 1542.96 512.50 1531.67 512.50 Q 1492.75 512.50 1492.75 512.50 Q 1484.60 511.87 1476.65 510.19 Q 1468.22 508.41 1460.89 506.24 Q 1435.98 498.88 1418.19 480.31 Q 1411.56 473.39 1406.11 463.30 Q 1400.55 453.00 1396.87 441.95 Q 1395.28 437.17 1393.47 428.24 Q 1392.03 421.11 1390.40 414.44 A 0.99 0.98 63.8 0 0 1388.83 413.90 Q 1380.31 420.70 1374.06 428.81 Q 1367.23 437.67 1359.44 445.69 Q 1336.30 469.52 1306.00 482.56 Q 1301.01 484.71 1294.24 486.95 Q 1288.27 488.93 1282.25 490.75 Q 1278.72 491.91 1275.00 491.75 Q 1269.62 493.37 1264.25 495.00 Q 1254.73 496.52 1245.25 498.25 Q 1236.64 498.75 1228.23 500.52 Q 1221.86 501.86 1221.74 501.89 Q 1170.67 511.85 1165.75 512.25 Q 1161.01 512.63 1155.29 512.47 A 0.89 0.88 -10.5 0 1 1154.48 511.92 Q 1153.18 508.78 1153.00 505.50 Q 1150.40 496.42 1150.01 487.05 Q 1149.50 474.61 1149.48 474.47 Q 1148.52 465.51 1146.22 455.43 Q 1146.00 454.46 1146.00 453.47 Q 1145.98 430.31 1140.75 408.00 Q 1139.79 403.88 1139.75 391.75 Q 1139.23 385.76 1138.96 379.75 Q 1138.67 373.25 1137.83 367.82 Q 1135.08 350.08 1135.00 348.00 Q 1134.62 337.88 1133.06 329.44 Q 1131.79 322.54 1131.81 316.69 Q 1130.43 308.31 1129.97 299.84 Q 1129.51 291.29 1128.71 286.23 Q 1127.09 275.97 1125.25 265.75 Q 1124.83 259.63 1125.00 253.50 Q 1124.12 238.09 1119.50 223.37 Q 1118.65 220.65 1117.50 215.25 Q 1116.97 212.76 1115.73 214.29 A 1.87 1.57 -76.5 0 1 1114.97 214.85 Q 1112.81 215.66 1111.29 217.28 Q 1108.75 220.00 1108.32 220.34 Q 1103.73 223.92 1098.74 226.93 A 0.59 0.58 -35.6 0 1 1097.99 226.81 Q 1093.59 221.53 1090.19 215.56 Q 1089.10 213.66 1089.00 213.00 Q 1088.67 210.84 1087.66 208.99 Q 1086.31 206.52 1085.97 205.22 Q 1083.78 196.78 1082.00 188.25 Q 1082.28 185.16 1081.42 182.20 Q 1078.17 171.05 1075.51 159.75 Q 1075.01 157.63 1074.92 155.47 Q 1074.81 152.76 1074.46 151.21 Q 1071.35 137.45 1068.00 123.75 Q 1067.90 119.48 1066.19 115.56 Q 1063.82 109.51 1061.43 103.47 A 0.67 0.66 -28.6 0 1 1061.66 102.70 Q 1069.22 97.15 1078.50 95.50 Q 1086.84 92.72 1095.29 90.31 Q 1105.10 87.51 1112.13 85.38 Q 1135.77 78.20 1160.00 73.25 Q 1175.51 68.59 1176.00 68.50 Q 1181.07 67.57 1186.25 67.50 Q 1206.18 62.66 1226.60 61.08 Q 1226.66 61.08 1236.40 60.70 Q 1244.04 60.41 1252.00 58.75 Q 1257.43 57.62 1263.75 57.86 Z M 1120.50 176.46 L 1135.83 175.28 A 1.35 1.33 70.9 0 1 1137.07 175.89 Q 1138.10 177.44 1138.86 179.02 Q 1138.92 179.14 1140.35 181.37 Q 1141.22 182.71 1141.04 184.50 Q 1142.86 206.05 1144.31 212.94 Q 1145.99 220.88 1145.75 229.00 Q 1147.35 246.74 1148.69 255.06 Q 1150.74 267.87 1152.25 280.75 Q 1152.96 285.22 1152.75 289.75 Q 1152.63 292.27 1153.79 301.19 Q 1156.34 320.81 1158.91 340.43 Q 1160.21 350.41 1160.25 360.50 Q 1162.79 379.48 1165.00 398.50 Q 1166.91 408.79 1166.75 419.25 Q 1166.80 419.72 1169.50 439.25 Q 1172.18 458.58 1174.07 478.74 A 1.05 1.04 87.3 0 0 1175.11 479.69 Q 1181.71 479.72 1188.75 478.54 Q 1196.23 477.71 1203.75 477.50 Q 1226.28 474.31 1248.75 470.75 Q 1253.31 470.44 1259.50 468.75 Q 1275.05 464.49 1286.37 460.01 Q 1300.70 454.33 1313.51 445.94 Q 1321.45 440.74 1329.36 433.78 Q 1360.16 406.69 1376.64 369.00 Q 1379.34 362.82 1382.43 353.41 Q 1386.96 339.57 1387.25 337.50 Q 1388.20 330.64 1389.94 323.94 Q 1393.71 304.34 1394.25 297.00 Q 1395.22 283.82 1394.75 254.00 Q 1394.51 238.76 1390.50 217.25 Q 1389.62 212.55 1387.00 194.25 Q 1384.34 184.85 1381.81 175.41 Q 1379.91 168.28 1378.22 163.74 Q 1376.09 158.01 1373.56 152.44 Q 1371.10 144.35 1366.50 137.25 Q 1365.47 132.94 1362.46 129.75 Q 1358.13 121.87 1355.44 119.06 Q 1339.77 102.72 1316.56 93.44 Q 1309.33 90.55 1303.04 89.21 Q 1299.85 88.53 1289.07 87.21 Q 1259.27 83.56 1229.50 88.50 Q 1224.64 88.40 1222.00 88.75 Q 1212.47 90.01 1200.00 93.00 Q 1179.28 96.64 1159.00 102.25 Q 1149.49 104.22 1140.25 107.25 Q 1125.62 110.77 1111.22 115.14 Q 1105.81 116.77 1100.27 117.75 A 1.86 1.85 84.6 0 0 1098.73 119.62 Q 1099.06 139.14 1103.27 157.05 Q 1104.11 160.60 1104.00 164.25 Q 1106.76 174.72 1109.31 185.49 Q 1109.53 186.44 1110.08 185.63 Q 1112.74 181.69 1116.47 180.12 Q 1116.79 179.99 1117.25 179.55 L 1120.50 176.46 Z M 1712.00 265.46 L 1742.75 303.79 Q 1742.72 304.18 1742.76 304.57 Q 1742.79 304.91 1743.02 305.26 Q 1750.73 317.35 1759.65 328.59 Q 1774.70 347.54 1789.81 366.44 Q 1794.40 372.17 1789.19 377.94 Q 1782.69 387.25 1775.69 396.19 Q 1743.03 438.95 1710.15 481.56 Q 1710.11 481.61 1703.87 489.49 Q 1696.99 498.19 1691.02 507.63 Q 1690.33 508.71 1691.62 508.76 Q 1708.24 509.40 1725.25 509.64 Q 1735.28 509.77 1745.25 508.75 Q 1749.49 509.62 1750.00 505.54 Q 1751.34 505.08 1752.20 503.95 Q 1779.92 467.64 1808.56 432.06 Q 1811.71 428.15 1822.04 414.00 Q 1825.60 413.39 1827.56 416.19 Q 1831.49 420.41 1835.06 424.94 Q 1855.88 450.45 1876.09 476.44 Q 1892.94 498.12 1900.44 507.06 Q 1902.14 509.09 1905.25 508.50 Q 1910.41 509.08 1915.58 509.45 Q 1921.00 509.82 1925.91 510.29 Q 1941.33 511.76 1957.09 511.49 A 1.25 1.25 -85.9 0 0 1958.31 510.43 Q 1959.07 505.65 1956.91 502.83 Q 1921.74 456.91 1886.62 410.95 Q 1886.60 410.93 1882.11 404.84 Q 1876.12 396.72 1868.75 389.79 Q 1868.04 388.88 1867.41 387.92 Q 1866.88 387.09 1865.94 386.19 Q 1864.53 384.84 1863.77 383.09 Q 1862.76 380.77 1862.03 379.83 Q 1859.18 376.15 1856.75 372.80 Q 1855.68 371.31 1856.82 369.87 Q 1911.98 300.46 1965.79 230.50 Q 1971.58 227.26 1974.20 221.17 A 0.49 0.48 12.2 0 0 1973.76 220.50 Q 1957.91 220.15 1942.07 220.20 Q 1927.54 220.25 1926.94 220.28 Q 1919.35 220.70 1911.93 222.65 Q 1910.00 223.15 1907.88 223.26 A 2.12 2.12 -79.9 0 0 1906.02 224.56 Q 1904.68 227.78 1902.69 229.94 Q 1889.33 248.16 1875.48 266.00 Q 1856.94 289.89 1838.94 314.19 Q 1836.51 316.16 1834.56 318.60 A 1.97 1.25 77.5 0 0 1834.23 319.51 Q 1834.07 321.21 1832.45 321.97 Q 1830.53 322.86 1829.48 324.63 A 1.23 1.21 -74.0 0 1 1828.44 325.22 L 1821.06 325.20 A 0.72 0.56 -3.7 0 1 1820.37 324.73 L 1820.21 323.76 A 1.40 0.37 86.4 0 0 1819.92 322.89 Q 1818.09 320.83 1816.78 318.40 Q 1815.58 316.18 1815.30 318.50 Q 1815.25 318.91 1815.45 319.45 Q 1816.04 321.01 1814.25 320.54 Q 1813.30 319.16 1813.25 317.50 A 1.67 1.29 -70.9 0 0 1812.95 316.61 L 1763.96 253.25 Q 1763.95 252.34 1763.48 251.54 Q 1753.50 234.55 1739.30 220.91 A 1.27 1.27 67.5 0 0 1738.44 220.55 Q 1707.75 219.92 1677.04 220.44 Q 1675.85 220.46 1676.56 221.42 Q 1683.11 230.36 1690.00 239.70 Q 1698.35 251.03 1707.75 261.50 Q 1710.53 264.60 1712.00 265.46 Z M 1458.50 476.71 Q 1459.42 477.53 1460.56 477.74 Q 1462.19 478.05 1462.70 478.29 Q 1467.37 480.50 1472.06 482.69 Q 1475.20 484.41 1478.75 484.75 Q 1494.88 489.67 1511.74 490.21 Q 1537.43 491.03 1562.46 485.48 Q 1564.56 485.02 1566.20 484.84 Q 1568.09 484.63 1570.00 484.50 Q 1580.45 481.15 1590.94 477.94 Q 1618.66 469.07 1643.94 451.19 Q 1651.94 445.52 1656.93 439.63 A 1.61 1.06 -33.3 0 0 1657.31 438.75 L 1657.49 428.89 A 4.34 2.92 35.1 0 0 1656.56 426.47 L 1646.21 413.25 Q 1646.37 412.73 1646.07 412.42 Q 1645.88 412.23 1645.84 412.17 Q 1639.70 403.46 1631.27 396.95 Q 1628.93 395.15 1626.81 397.56 Q 1608.66 418.16 1583.22 431.23 Q 1579.18 433.30 1572.03 436.37 Q 1560.89 441.14 1560.69 441.19 Q 1556.32 442.18 1554.94 442.69 Q 1540.72 447.91 1525.73 447.77 Q 1518.14 447.70 1513.81 446.83 Q 1507.91 445.66 1502.50 442.45 A 1.06 1.05 -54.8 0 1 1502.23 440.86 Q 1547.04 386.95 1592.44 333.19 Q 1600.00 324.23 1610.00 310.79 Q 1624.14 292.85 1639.29 275.75 Q 1641.66 274.07 1642.80 271.47 A 0.97 0.95 -49.3 0 0 1642.74 270.57 Q 1641.30 268.38 1638.31 266.44 Q 1628.73 260.21 1619.05 257.81 Q 1612.84 256.27 1606.91 253.87 Q 1601.32 251.60 1595.31 251.19 Q 1588.99 250.25 1582.62 249.92 Q 1579.77 249.78 1569.87 249.56 Q 1548.18 249.08 1526.57 251.01 Q 1521.53 251.46 1516.64 253.04 Q 1507.46 255.98 1503.06 257.81 Q 1473.47 270.11 1452.90 294.65 Q 1445.79 303.13 1440.19 314.44 Q 1433.14 328.64 1428.83 342.60 Q 1425.89 352.09 1424.93 355.73 Q 1423.18 362.37 1422.50 369.25 Q 1421.24 378.39 1420.44 387.57 Q 1419.54 397.81 1419.82 405.96 Q 1420.13 415.31 1421.45 424.57 Q 1422.90 434.84 1426.23 442.50 Q 1430.25 451.75 1436.46 459.81 Q 1438.04 461.87 1441.12 464.61 Q 1443.63 466.85 1445.94 469.31 Q 1452.17 473.09 1458.50 476.71 Z"
     id="path104" />
  <path
     fill="rgb(157,140,79)"
     fill-opacity="1.000"
     d="M 638.84 70.30 Q 641.11 77.85 641.21 85.75 Q 632.10 91.03 622.30 94.72 Q 614.26 97.75 612.30 98.56 Q 607.37 100.62 602.43 102.68 Q 598.46 104.33 595.19 107.19 Q 590.48 109.76 590.50 115.25 Q 592.22 121.51 592.50 128.00 Q 594.24 133.12 594.88 138.44 Q 595.27 141.65 595.57 149.07 Q 595.74 153.30 595.65 157.53 Q 595.51 164.36 595.53 165.98 Q 595.66 174.80 596.25 178.50 Q 598.35 191.67 598.25 205.00 Q 598.84 216.70 599.11 228.41 Q 599.18 231.71 599.80 244.57 Q 600.13 251.32 600.25 260.75 Q 600.50 280.34 603.86 310.82 Q 605.35 324.39 605.71 330.73 Q 606.51 344.84 606.13 359.00 Q 605.76 372.92 607.25 386.75 Q 607.93 407.25 608.25 427.75 Q 610.91 445.87 610.75 462.25 Q 610.66 471.93 611.47 480.71 Q 612.93 496.57 612.99 497.83 Q 613.64 511.57 613.25 522.00 Q 612.81 533.59 615.79 543.58 A 0.69 0.68 -7.4 0 0 616.44 544.07 Q 631.22 544.39 646.00 544.25 Q 655.58 544.36 665.12 543.61 Q 667.09 543.45 668.93 542.30 Q 670.89 541.06 672.96 540.00 Q 673.34 542.03 672.83 543.96 A 0.90 0.88 -0.8 0 1 672.21 544.58 Q 666.35 546.25 660.25 546.28 Q 638.00 546.39 615.75 546.25 Q 608.86 546.41 600.91 544.11 A 0.94 0.93 8.6 0 1 600.23 543.20 Q 600.43 531.99 599.77 521.77 Q 599.24 513.64 599.29 505.50 Q 599.34 498.49 598.75 491.50 Q 598.73 480.11 598.25 468.74 Q 598.02 463.17 596.54 448.81 Q 594.64 430.48 595.25 412.00 Q 592.36 375.18 592.25 338.25 Q 591.16 321.88 590.42 305.48 Q 589.92 294.50 589.10 285.54 Q 587.29 265.63 585.25 245.75 Q 585.25 214.00 585.25 214.00 Q 583.60 197.88 583.50 183.25 Q 583.42 172.31 582.32 162.74 Q 581.12 152.40 580.67 141.99 Q 579.80 121.59 578.94 116.56 Q 578.03 111.32 578.25 105.99 A 0.58 0.58 78.0 0 0 577.42 105.45 Q 566.16 110.98 554.75 116.25 Q 554.07 116.57 550.06 116.68 A 0.43 0.43 2.9 0 1 549.62 116.20 Q 550.32 111.22 553.92 107.67 Q 556.07 105.55 558.21 103.42 A 1.70 1.62 14.5 0 1 559.04 102.96 Q 561.87 102.30 564.46 100.98 Q 572.38 96.93 580.81 94.06 Q 592.35 89.08 603.89 84.08 Q 620.92 76.70 638.22 69.99 A 0.48 0.47 71.0 0 1 638.84 70.30 Z M 590.4514 282.0998 A 3.69 0.33 90.6 0 0 590.8200 278.4135 A 3.69 0.33 90.6 0 0 590.5286 274.7202 A 3.69 0.33 90.6 0 0 590.1600 278.4066 A 3.69 0.33 90.6 0 0 590.4514 282.0998 Z"
     id="path106" />
  <path
     fill="rgb(157,140,79)"
     fill-opacity="1.000"
     d="M 261.50 87.98 Q 263.99 88.39 266.50 88.60 Q 269.33 88.83 271.40 89.51 Q 285.95 94.29 298.79 102.78 Q 300.22 103.72 298.54 104.07 Q 297.14 104.36 296.75 105.71 Q 291.58 105.26 286.56 103.94 Q 272.11 100.14 257.39 97.55 Q 248.18 95.93 240.25 96.50 Q 224.36 97.64 206.81 100.49 Q 206.22 100.59 189.99 102.87 Q 178.83 104.44 168.00 107.75 Q 151.74 110.81 135.81 115.31 Q 122.72 118.18 109.94 122.19 Q 94.03 125.63 78.50 130.50 Q 76.31 130.48 74.81 131.06 Q 63.73 135.40 53.09 140.99 A 0.58 0.57 -24.6 0 0 52.82 141.70 Q 56.76 152.04 59.81 162.69 Q 63.43 170.71 66.75 178.85 Q 66.78 178.93 66.93 179.81 Q 67.04 180.42 67.75 180.54 Q 64.88 183.38 59.57 183.85 A 0.79 0.78 75.2 0 1 58.77 183.38 Q 54.23 172.82 51.00 162.50 Q 48.28 156.73 46.33 150.68 Q 43.62 142.30 43.61 142.27 Q 41.22 135.28 38.91 127.97 A 1.33 1.32 -16.3 0 1 39.83 126.30 Q 45.81 124.67 51.75 123.20 Q 56.55 122.01 63.60 119.82 Q 71.72 117.29 80.06 115.56 Q 87.48 113.19 94.94 110.94 Q 98.08 109.61 101.50 109.50 Q 103.24 109.45 109.43 107.40 Q 120.25 103.83 131.44 101.69 Q 147.60 96.93 150.50 96.25 Q 152.52 95.77 155.28 95.56 Q 158.00 95.36 160.02 94.87 Q 170.25 92.42 180.56 90.32 Q 189.44 88.51 198.50 88.25 Q 210.97 86.81 223.50 86.01 Q 242.62 84.80 261.50 87.98 Z"
     id="path108" />
  <path
     fill="rgb(240,205,95)"
     fill-opacity="1.000"
     d="M 641.21 85.75 Q 642.17 92.47 642.25 97.50 Q 642.56 116.24 643.88 133.29 Q 644.97 147.42 645.32 153.24 Q 646.43 171.48 647.50 182.00 Q 648.69 193.66 648.87 200.50 Q 649.30 216.64 650.25 232.75 Q 650.62 247.08 652.75 261.25 Q 653.85 283.77 655.60 306.24 Q 656.52 318.10 656.25 330.00 Q 656.85 339.05 658.29 348.00 Q 658.89 349.58 660.74 349.98 A 2.51 2.50 -8.2 0 1 662.42 351.23 Q 665.04 356.04 668.71 357.18 A 1.82 1.80 77.7 0 1 669.51 357.70 Q 671.36 359.81 673.98 359.75 Q 675.08 359.73 677.72 358.54 Q 679.54 357.73 681.50 357.24 Q 687.51 355.75 692.81 352.56 Q 692.97 352.47 703.56 347.81 Q 711.83 343.34 720.26 339.20 Q 721.54 338.56 730.77 334.50 Q 736.04 332.17 741.06 329.31 Q 744.92 328.60 748.16 326.40 Q 753.04 323.09 758.69 321.44 Q 758.90 321.37 770.31 315.31 Q 774.20 314.70 777.31 312.31 Q 778.98 311.03 786.25 308.25 Q 787.74 307.68 811.50 308.00 Q 814.27 308.04 815.29 308.50 Q 810.94 313.04 805.31 315.81 Q 802.31 318.49 798.89 320.61 Q 795.04 322.99 791.63 325.93 Q 790.13 327.23 787.35 328.81 Q 784.93 330.19 783.00 332.25 Q 782.91 332.34 770.69 340.94 Q 770.12 341.63 769.52 342.31 A 1.73 1.61 10.7 0 1 768.71 342.82 Q 765.20 343.87 763.69 345.69 Q 761.60 348.19 759.44 349.33 Q 756.75 350.75 756.01 351.36 Q 749.28 356.94 741.99 361.78 A 2.01 1.38 -84.8 0 0 741.37 362.53 Q 740.66 364.04 738.93 364.17 Q 738.37 364.22 738.00 364.45 Q 735.46 366.02 733.50 368.25 Q 721.96 375.95 710.32 385.39 A 0.97 0.95 -41.0 0 0 710.21 386.78 L 714.79 391.75 Q 717.50 396.76 720.25 401.75 Q 721.11 404.66 723.94 406.56 Q 725.50 407.61 727.15 409.35 Q 728.91 411.20 730.26 412.20 Q 749.67 426.56 769.69 440.06 Q 823.41 479.58 832.81 486.69 Q 843.66 494.89 852.75 504.61 Q 854.42 506.40 854.93 508.80 Q 857.30 519.90 857.25 532.35 A 0.54 0.53 -79.9 0 1 856.54 532.85 Q 851.60 531.13 847.20 528.78 Q 844.00 527.07 838.72 523.17 Q 775.01 476.12 711.69 428.56 Q 702.80 422.11 692.83 415.72 Q 692.64 415.60 691.43 414.91 L 678.10 407.32 A 1.47 0.60 -16.3 0 0 677.23 407.23 L 676.75 407.29 Q 673.30 406.56 669.29 404.05 Q 668.85 403.77 668.88 404.29 Q 670.72 434.72 670.31 463.25 Q 669.99 485.91 671.81 508.50 Q 672.65 518.98 673.00 529.50 Q 673.52 534.75 672.96 540.00 Q 670.89 541.06 668.93 542.30 Q 667.09 543.45 665.12 543.61 Q 655.58 544.36 646.00 544.25 Q 631.22 544.39 616.44 544.07 A 0.69 0.68 -7.4 0 1 615.79 543.58 Q 612.81 533.59 613.25 522.00 Q 613.64 511.57 612.99 497.83 Q 612.93 496.57 611.47 480.71 Q 610.66 471.93 610.75 462.25 Q 610.91 445.87 608.25 427.75 Q 607.93 407.25 607.25 386.75 Q 605.76 372.92 606.13 359.00 Q 606.51 344.84 605.71 330.73 Q 605.35 324.39 603.86 310.82 Q 600.50 280.34 600.25 260.75 Q 600.13 251.32 599.80 244.57 Q 599.18 231.71 599.11 228.41 Q 598.84 216.70 598.25 205.00 Q 598.35 191.67 596.25 178.50 Q 595.66 174.80 595.53 165.98 Q 595.51 164.36 595.65 157.53 Q 595.74 153.30 595.57 149.07 Q 595.27 141.65 594.88 138.44 Q 594.24 133.12 592.50 128.00 Q 592.22 121.51 590.50 115.25 Q 590.48 109.76 595.19 107.19 Q 598.46 104.33 602.43 102.68 Q 607.37 100.62 612.30 98.56 Q 614.26 97.75 622.30 94.72 Q 632.10 91.03 641.21 85.75 Z"
     id="path110" />
  <path
     fill="rgb(157,140,79)"
     fill-opacity="1.000"
     d="M 980.78 85.96 A 1.17 1.17 52.8 0 1 982.13 86.15 Q 991.29 94.95 997.44 105.06 Q 1003.24 113.52 1008.31 122.44 Q 1010.48 124.40 1011.25 127.25 Q 1012.53 129.86 1014.87 131.97 A 1.02 1.02 -35.3 0 1 1014.58 133.66 Q 1001.40 139.24 987.75 138.71 Q 989.78 138.48 991.81 138.31 Q 1000.83 135.60 1009.69 133.25 A 1.39 1.38 -24.3 0 0 1010.49 131.14 Q 1007.79 127.11 1005.17 123.12 Q 1004.71 122.42 1003.46 119.53 Q 1002.64 117.64 1001.06 116.19 Q 996.59 108.93 990.01 101.82 A 1.49 1.47 61.8 0 0 988.58 101.38 Q 982.01 102.94 976.74 105.73 Q 957.53 115.91 938.29 126.03 Q 922.27 134.46 920.64 135.44 Q 911.32 141.02 902.68 148.59 Q 899.44 151.43 903.71 150.88 Q 906.05 150.59 910.82 150.20 Q 923.88 149.14 936.74 146.69 Q 943.56 145.39 950.50 145.00 Q 960.21 142.94 970.00 141.26 Q 970.09 141.25 973.81 140.34 Q 976.84 139.59 980.00 140.29 Q 964.80 144.91 948.97 146.18 Q 948.83 146.19 948.97 146.21 Q 949.62 146.32 948.75 146.50 Q 937.39 148.84 926.00 151.00 Q 919.63 152.80 913.00 152.50 Q 904.17 153.81 895.25 154.23 A 1.51 1.29 -24.4 0 1 894.35 153.97 Q 892.15 152.39 891.31 150.19 Q 889.03 144.17 886.24 137.65 A 1.11 1.10 64.2 0 1 886.73 136.24 L 980.78 85.96 Z"
     id="path112" />
  <path
     fill="rgb(157,140,79)"
     fill-opacity="1.000"
     d="M 1303.04 89.21 Q 1309.33 90.55 1316.56 93.44 Q 1339.77 102.72 1355.44 119.06 Q 1358.13 121.87 1362.46 129.75 Q 1343.16 117.19 1338.06 113.44 Q 1333.10 109.78 1328.00 108.50 Q 1324.31 106.70 1320.55 105.08 Q 1316.87 103.50 1312.70 102.84 Q 1300.91 100.99 1286.75 99.50 Q 1271.94 97.94 1257.68 99.21 Q 1256.88 99.28 1243.88 101.20 Q 1236.98 102.21 1230.00 102.50 Q 1213.80 104.74 1198.00 109.00 Q 1194.50 109.53 1191.00 110.00 Q 1181.61 112.57 1172.25 115.25 Q 1159.32 117.80 1146.73 121.69 Q 1143.54 122.68 1140.25 123.25 Q 1133.00 124.51 1126.28 127.38 Q 1119.61 130.24 1118.58 130.93 Q 1114.67 133.55 1114.00 138.75 Q 1112.83 147.80 1115.64 158.21 Q 1117.42 164.78 1118.50 171.50 Q 1119.56 173.96 1120.50 176.46 L 1117.25 179.55 Q 1116.79 179.99 1116.47 180.12 Q 1112.74 181.69 1110.08 185.63 Q 1109.53 186.44 1109.31 185.49 Q 1106.76 174.72 1104.00 164.25 Q 1104.11 160.60 1103.27 157.05 Q 1099.06 139.14 1098.73 119.62 A 1.86 1.85 84.6 0 1 1100.27 117.75 Q 1105.81 116.77 1111.22 115.14 Q 1125.62 110.77 1140.25 107.25 Q 1149.49 104.22 1159.00 102.25 Q 1179.28 96.64 1200.00 93.00 Q 1212.47 90.01 1222.00 88.75 Q 1224.64 88.40 1229.50 88.50 Q 1259.27 83.56 1289.07 87.21 Q 1299.85 88.53 1303.04 89.21 Z"
     id="path114" />
  <path
     fill="rgb(240,205,95)"
     fill-opacity="1.000"
     d="M 257.39 97.55 Q 272.11 100.14 286.56 103.94 Q 291.58 105.26 296.75 105.71 L 299.70 105.93 A 1.25 0.73 65.7 0 1 300.47 106.48 Q 302.35 109.20 304.94 111.31 Q 309.89 117.26 313.81 123.94 Q 315.89 126.57 315.50 130.00 Q 317.07 135.37 315.50 140.75 Q 315.64 144.24 314.55 147.56 Q 309.82 161.84 301.93 174.63 Q 289.89 194.14 275.42 211.92 Q 257.39 234.06 237.75 254.79 Q 237.02 254.84 237.31 254.31 Q 238.09 252.89 242.13 249.14 Q 244.18 247.23 245.50 244.75 Q 251.59 237.46 262.00 226.00 Q 269.25 218.03 275.38 208.24 Q 278.90 202.61 280.81 197.37 Q 282.92 191.61 284.08 185.60 Q 285.44 178.52 284.76 173.34 Q 283.94 167.13 280.78 161.49 Q 278.25 156.97 273.06 153.69 Q 271.17 152.49 269.50 152.79 Q 267.37 151.32 265.44 148.81 Q 263.70 146.55 260.69 145.56 Q 258.76 144.92 256.95 144.02 Q 254.27 142.68 253.30 142.34 Q 247.86 140.38 243.00 140.25 Q 222.60 139.70 201.20 144.72 Q 198.86 145.27 196.76 145.43 Q 194.51 145.61 192.25 145.75 Q 179.38 149.63 166.24 152.44 Q 155.53 154.73 144.79 157.81 A 0.41 0.41 77.3 0 0 144.50 158.27 Q 146.31 169.10 149.24 179.67 Q 151.30 187.11 153.09 194.98 Q 155.36 205.03 158.69 214.81 Q 161.05 227.54 165.15 239.82 Q 166.56 244.05 166.75 248.50 Q 172.39 265.67 173.00 269.50 Q 174.72 280.28 178.55 290.89 A 0.73 0.73 -33.8 0 0 179.77 291.13 Q 182.79 287.77 186.50 285.71 Q 187.28 286.43 187.45 287.51 Q 188.02 291.13 190.87 290.84 Q 191.49 290.78 194.75 289.74 Q 199.72 288.14 204.19 285.51 Q 205.93 284.49 208.79 281.87 Q 210.98 279.86 213.44 278.19 Q 214.02 277.52 214.96 277.75 Q 200.70 290.11 196.50 293.25 Q 189.42 298.56 186.31 302.31 Q 184.77 304.18 185.67 307.52 Q 187.05 312.65 187.56 317.94 Q 187.59 318.18 194.13 337.64 Q 194.45 338.61 194.50 339.92 Q 194.54 341.09 194.75 342.25 Q 196.69 348.50 198.60 354.75 Q 199.93 359.12 202.09 367.34 Q 204.87 377.94 208.44 388.31 Q 208.43 390.17 208.75 392.00 Q 208.76 392.07 216.05 414.62 Q 216.39 415.67 216.44 417.44 Q 216.49 418.90 216.94 420.31 Q 219.93 429.56 222.94 438.81 Q 223.45 441.91 224.00 445.00 Q 226.90 454.67 228.13 464.68 A 0.96 0.92 67.2 0 1 227.81 465.51 Q 224.37 468.42 220.36 470.37 Q 218.03 471.50 215.97 473.19 Q 212.80 475.78 209.04 477.50 Q 208.75 475.74 207.44 475.31 Q 201.71 473.42 201.49 466.87 Q 201.44 465.41 200.92 464.04 Q 197.86 455.94 194.89 447.60 Q 194.63 446.86 194.53 445.34 Q 194.46 444.16 193.93 443.06 Q 189.68 434.23 187.25 424.75 Q 182.47 412.72 179.00 400.25 Q 176.55 394.26 174.31 388.19 Q 173.01 381.68 170.43 375.56 Q 168.69 371.43 166.50 363.75 Q 164.88 358.06 160.31 346.44 Q 157.95 337.25 154.25 328.50 Q 151.38 318.34 147.63 308.47 Q 146.54 305.58 145.04 300.25 Q 143.87 296.08 142.13 292.09 Q 138.69 284.21 136.94 275.81 Q 133.67 268.48 131.36 260.83 Q 129.21 253.72 127.53 249.37 Q 124.19 240.76 123.56 237.94 Q 122.27 232.13 119.81 226.69 Q 115.92 214.47 111.31 202.51 Q 109.09 196.74 106.13 192.54 Q 98.85 182.25 89.08 174.13 A 1.85 1.66 65.2 0 0 88.20 173.75 Q 79.53 172.78 72.06 177.81 Q 71.01 178.52 70.75 179.21 L 67.75 180.54 Q 67.04 180.42 66.93 179.81 Q 66.78 178.93 66.75 178.85 Q 63.43 170.71 59.81 162.69 Q 56.76 152.04 52.82 141.70 A 0.58 0.57 -24.6 0 1 53.09 140.99 Q 63.73 135.40 74.81 131.06 Q 76.31 130.48 78.50 130.50 Q 94.03 125.63 109.94 122.19 Q 122.72 118.18 135.81 115.31 Q 151.74 110.81 168.00 107.75 Q 178.83 104.44 189.99 102.87 Q 206.22 100.59 206.81 100.49 Q 224.36 97.64 240.25 96.50 Q 248.18 95.93 257.39 97.55 Z"
     id="path116" />
  <path
     fill="rgb(240,205,95)"
     fill-opacity="1.000"
     d="M 1286.75 99.50 Q 1300.91 100.99 1312.70 102.84 Q 1316.87 103.50 1320.55 105.08 Q 1324.31 106.70 1328.00 108.50 Q 1333.10 109.78 1338.06 113.44 Q 1343.16 117.19 1362.46 129.75 Q 1365.47 132.94 1366.50 137.25 Q 1371.10 144.35 1373.56 152.44 Q 1376.09 158.01 1378.22 163.74 Q 1379.91 168.28 1381.81 175.41 Q 1384.34 184.85 1387.00 194.25 Q 1389.62 212.55 1390.50 217.25 Q 1394.51 238.76 1394.75 254.00 Q 1395.22 283.82 1394.25 297.00 Q 1393.71 304.34 1389.94 323.94 Q 1388.20 330.64 1387.25 337.50 Q 1386.96 339.57 1382.43 353.41 Q 1379.34 362.82 1376.64 369.00 Q 1360.16 406.69 1329.36 433.78 Q 1321.45 440.74 1313.51 445.94 Q 1300.70 454.33 1286.37 460.01 Q 1275.05 464.49 1259.50 468.75 Q 1253.31 470.44 1248.75 470.75 Q 1226.28 474.31 1203.75 477.50 Q 1196.23 477.71 1188.75 478.54 Q 1186.34 467.65 1185.75 456.50 Q 1185.50 451.76 1182.00 430.00 Q 1181.90 422.09 1181.00 414.25 Q 1178.63 397.01 1176.71 379.71 Q 1176.71 379.65 1175.61 371.31 Q 1174.76 364.81 1174.75 358.25 Q 1170.60 330.07 1167.50 301.75 Q 1166.34 295.06 1166.75 288.25 Q 1163.53 261.21 1159.75 234.25 Q 1159.90 220.66 1158.17 207.20 Q 1157.50 202.04 1155.90 198.04 Q 1154.28 194.00 1151.88 189.40 Q 1151.31 188.31 1150.32 187.57 Q 1147.15 185.23 1145.06 181.17 Q 1144.13 179.39 1143.18 181.16 Q 1142.75 181.98 1142.21 183.22 Q 1142.19 183.26 1142.02 183.94 Q 1141.87 184.59 1141.04 184.50 Q 1141.22 182.71 1140.35 181.37 Q 1138.92 179.14 1138.86 179.02 Q 1138.10 177.44 1137.07 175.89 A 1.35 1.33 70.9 0 0 1135.83 175.28 L 1120.50 176.46 Q 1119.56 173.96 1118.50 171.50 Q 1117.42 164.78 1115.64 158.21 Q 1112.83 147.80 1114.00 138.75 Q 1114.67 133.55 1118.58 130.93 Q 1119.61 130.24 1126.28 127.38 Q 1133.00 124.51 1140.25 123.25 Q 1143.54 122.68 1146.73 121.69 Q 1159.32 117.80 1172.25 115.25 Q 1181.61 112.57 1191.00 110.00 Q 1194.50 109.53 1198.00 109.00 Q 1213.80 104.74 1230.00 102.50 Q 1236.98 102.21 1243.88 101.20 Q 1256.88 99.28 1257.68 99.21 Q 1271.94 97.94 1286.75 99.50 Z M 1234.96 417.50 Q 1231.85 420.04 1227.75 421.33 A 0.64 0.64 63.0 0 0 1227.43 422.32 Q 1230.67 426.75 1234.62 429.27 Q 1236.97 430.77 1238.25 431.36 Q 1240.47 432.38 1242.50 432.00 Q 1249.87 430.61 1260.73 426.96 Q 1263.89 425.90 1268.03 424.08 Q 1271.62 422.49 1275.25 421.00 Q 1295.59 411.73 1313.31 395.31 Q 1335.12 375.12 1344.88 348.32 Q 1347.53 341.03 1348.87 336.85 Q 1350.74 331.04 1351.75 325.00 Q 1353.34 305.28 1354.99 285.56 Q 1355.50 279.48 1355.50 273.42 Q 1355.50 267.34 1355.50 261.25 Q 1353.95 244.96 1351.75 228.75 Q 1352.00 222.39 1351.00 217.00 Q 1348.80 205.14 1344.75 192.00 Q 1344.63 188.55 1342.94 185.56 Q 1340.54 180.00 1338.15 174.44 Q 1335.81 169.01 1332.06 164.44 Q 1330.42 160.18 1326.94 158.06 Q 1323.34 155.88 1318.50 155.29 Q 1314.29 150.91 1309.61 147.05 Q 1308.24 145.92 1306.04 145.10 Q 1304.59 144.55 1302.19 143.56 Q 1284.67 136.38 1264.27 139.13 Q 1246.98 141.47 1229.94 145.19 Q 1217.10 147.34 1203.67 151.86 A 0.99 0.98 -9.6 0 0 1203.00 152.79 Q 1202.98 163.90 1204.05 174.00 Q 1206.04 192.87 1207.26 211.81 Q 1208.07 224.29 1209.25 236.75 Q 1209.91 248.11 1210.00 259.50 Q 1212.33 286.60 1214.00 313.75 Q 1216.82 338.02 1216.75 341.00 Q 1216.45 353.29 1217.75 365.50 Q 1218.38 381.67 1220.13 397.76 Q 1221.33 408.73 1221.76 419.88 A 0.60 0.59 -7.6 0 0 1222.50 420.43 L 1234.96 417.50 Z"
     id="path118" />
  <path
     fill="rgb(240,205,95)"
     fill-opacity="1.000"
     d="M 990.01 101.82 Q 996.59 108.93 1001.06 116.19 Q 1002.64 117.64 1003.46 119.53 Q 1004.71 122.42 1005.17 123.12 Q 1007.79 127.11 1010.49 131.14 A 1.39 1.38 -24.3 0 1 1009.69 133.25 Q 1000.83 135.60 991.81 138.31 Q 989.78 138.48 987.75 138.71 L 980.00 140.29 Q 976.84 139.59 973.81 140.34 Q 970.09 141.25 970.00 141.26 Q 960.21 142.94 950.50 145.00 Q 943.56 145.39 936.74 146.69 Q 923.88 149.14 910.82 150.20 Q 906.05 150.59 903.71 150.88 Q 899.44 151.43 902.68 148.59 Q 911.32 141.02 920.64 135.44 Q 922.27 134.46 938.29 126.03 Q 957.53 115.91 976.74 105.73 Q 982.01 102.94 988.58 101.38 A 1.49 1.47 61.8 0 1 990.01 101.82 Z"
     id="path120" />
  <path
     fill="rgb(69,92,158)"
     fill-opacity="1.000"
     d="M 1302.19 143.56 Q 1304.59 144.55 1306.04 145.10 Q 1308.24 145.92 1309.61 147.05 Q 1314.29 150.91 1318.50 155.29 Q 1324.55 166.53 1328.84 178.56 Q 1331.01 184.65 1332.25 191.00 Q 1338.09 209.28 1338.00 228.50 Q 1342.63 265.31 1338.27 302.09 Q 1338.26 302.16 1337.67 310.44 Q 1337.37 314.55 1336.25 319.25 Q 1324.95 366.54 1286.16 394.00 Q 1284.98 394.84 1281.96 397.17 Q 1279.27 399.25 1277.44 399.94 Q 1275.23 400.76 1273.79 401.72 Q 1270.57 403.85 1270.45 403.91 Q 1268.31 405.00 1266.15 406.08 Q 1266.12 406.10 1262.58 407.35 Q 1260.94 407.93 1258.81 409.31 Q 1255.91 411.20 1245.00 414.25 Q 1237.76 416.27 1234.96 417.50 L 1222.50 420.43 A 0.60 0.59 -7.6 0 1 1221.76 419.88 Q 1221.33 408.73 1220.13 397.76 Q 1218.38 381.67 1217.75 365.50 Q 1216.45 353.29 1216.75 341.00 Q 1216.82 338.02 1214.00 313.75 Q 1212.33 286.60 1210.00 259.50 Q 1209.91 248.11 1209.25 236.75 Q 1208.07 224.29 1207.26 211.81 Q 1206.04 192.87 1204.05 174.00 Q 1202.98 163.90 1203.00 152.79 A 0.99 0.98 -9.6 0 1 1203.67 151.86 Q 1217.10 147.34 1229.94 145.19 Q 1246.98 141.47 1264.27 139.13 Q 1284.67 136.38 1302.19 143.56 Z M 1246.15 377.47 Q 1248.58 378.28 1250.92 378.14 Q 1252.67 378.03 1255.45 376.87 Q 1272.15 369.92 1286.47 355.38 Q 1287.42 354.41 1288.16 353.28 Q 1289.19 351.71 1290.85 350.35 Q 1292.74 348.80 1293.63 347.61 Q 1299.85 339.30 1302.19 334.94 Q 1305.30 329.12 1309.00 317.50 Q 1309.91 314.64 1309.75 311.00 Q 1311.61 289.19 1313.43 267.37 Q 1313.44 267.28 1314.30 259.65 Q 1315.16 252.10 1314.25 244.50 Q 1312.15 228.28 1310.05 212.06 Q 1309.79 210.08 1309.83 207.41 Q 1309.87 204.29 1309.50 202.75 Q 1306.76 191.49 1300.94 181.50 Q 1300.70 181.08 1300.24 180.81 Q 1297.50 179.22 1295.59 176.67 Q 1293.81 174.31 1290.31 172.94 Q 1288.69 172.30 1287.02 170.44 Q 1286.67 170.05 1286.21 169.90 Q 1268.18 163.80 1249.37 166.33 Q 1247.01 166.64 1244.88 168.04 Q 1239.93 171.29 1234.97 174.54 A 0.93 0.91 73.7 0 0 1234.56 175.31 Q 1234.74 208.54 1235.00 211.50 Q 1236.06 223.66 1237.75 235.75 Q 1237.75 248.75 1237.75 261.75 Q 1240.01 278.29 1239.56 294.99 Q 1239.17 309.49 1241.75 323.75 Q 1241.89 343.94 1244.12 363.99 Q 1244.24 365.06 1245.20 370.45 Q 1245.79 373.73 1245.81 377.00 A 0.51 0.49 10.0 0 0 1246.15 377.47 Z"
     id="path122" />
  <path
     fill="rgb(69,92,158)"
     fill-opacity="1.000"
     d="M 243.00 140.25 Q 247.86 140.38 253.30 142.34 Q 254.27 142.68 256.95 144.02 Q 258.76 144.92 260.69 145.56 Q 263.70 146.55 265.44 148.81 Q 267.37 151.32 269.50 152.79 Q 273.82 167.64 267.94 183.69 Q 263.27 196.44 254.06 208.81 Q 244.62 221.50 236.26 231.40 Q 233.92 234.17 223.13 246.50 Q 205.89 266.21 192.81 279.06 Q 187.59 284.19 186.50 285.71 Q 182.79 287.77 179.77 291.13 A 0.73 0.73 -33.8 0 1 178.55 290.89 Q 174.72 280.28 173.00 269.50 Q 172.39 265.67 166.75 248.50 Q 166.56 244.05 165.15 239.82 Q 161.05 227.54 158.69 214.81 Q 155.36 205.03 153.09 194.98 Q 151.30 187.11 149.24 179.67 Q 146.31 169.10 144.50 158.27 A 0.41 0.41 77.3 0 1 144.79 157.81 Q 155.53 154.73 166.24 152.44 Q 179.38 149.63 192.25 145.75 Q 194.51 145.61 196.76 145.43 Q 198.86 145.27 201.20 144.72 Q 222.60 139.70 243.00 140.25 Z M 240.99 175.82 L 236.01 170.69 Q 235.61 170.28 235.22 170.16 Q 233.05 169.50 230.75 169.75 Q 216.08 169.12 201.87 172.49 Q 201.79 172.51 197.20 173.40 Q 192.35 174.34 188.25 177.28 Q 185.18 179.48 183.50 180.00 Q 177.39 181.90 178.97 188.51 Q 180.16 193.45 180.50 198.50 Q 186.30 217.55 187.50 223.25 Q 188.78 229.34 192.66 235.28 A 0.56 0.55 -34.8 0 0 193.46 235.42 Q 199.90 230.43 204.69 225.69 Q 208.14 222.26 208.96 218.81 Q 209.08 218.29 209.38 217.93 Q 215.62 210.65 223.81 202.31 Q 228.46 197.59 232.89 191.85 Q 235.33 188.68 237.39 184.64 Q 239.24 181.01 241.20 177.02 A 1.09 1.03 36.7 0 0 240.99 175.82 Z"
     id="path124" />
  <path
     fill="rgb(157,140,79)"
     fill-opacity="1.000"
     d="M 269.50 152.79 Q 271.17 152.49 273.06 153.69 Q 278.25 156.97 280.78 161.49 Q 283.94 167.13 284.76 173.34 Q 285.44 178.52 284.08 185.60 Q 282.92 191.61 280.81 197.37 Q 278.90 202.61 275.38 208.24 Q 269.25 218.03 262.00 226.00 Q 251.59 237.46 245.50 244.75 Q 244.18 247.23 242.13 249.14 Q 238.09 252.89 237.31 254.31 Q 237.02 254.84 237.75 254.79 L 214.96 277.75 Q 214.02 277.52 213.44 278.19 Q 210.98 279.86 208.79 281.87 Q 205.93 284.49 204.19 285.51 Q 199.72 288.14 194.75 289.74 Q 191.49 290.78 190.87 290.84 Q 188.02 291.13 187.45 287.51 Q 187.28 286.43 186.50 285.71 Q 187.59 284.19 192.81 279.06 Q 205.89 266.21 223.13 246.50 Q 233.92 234.17 236.26 231.40 Q 244.62 221.50 254.06 208.81 Q 263.27 196.44 267.94 183.69 Q 273.82 167.64 269.50 152.79 Z"
     id="path126" />
  <path
     fill="rgb(157,140,79)"
     fill-opacity="1.000"
     d="M 1318.50 155.29 Q 1323.34 155.88 1326.94 158.06 Q 1330.42 160.18 1332.06 164.44 Q 1335.81 169.01 1338.15 174.44 Q 1340.54 180.00 1342.94 185.56 Q 1344.63 188.55 1344.75 192.00 Q 1348.80 205.14 1351.00 217.00 Q 1352.00 222.39 1351.75 228.75 Q 1353.95 244.96 1355.50 261.25 Q 1355.50 267.34 1355.50 273.42 Q 1355.50 279.48 1354.99 285.56 Q 1353.34 305.28 1351.75 325.00 Q 1350.74 331.04 1348.87 336.85 Q 1347.53 341.03 1344.88 348.32 Q 1335.12 375.12 1313.31 395.31 Q 1295.59 411.73 1275.25 421.00 Q 1271.62 422.49 1268.03 424.08 Q 1263.89 425.90 1260.73 426.96 Q 1249.87 430.61 1242.50 432.00 Q 1240.47 432.38 1238.25 431.36 Q 1236.97 430.77 1234.62 429.27 Q 1230.67 426.75 1227.43 422.32 A 0.64 0.64 63.0 0 1 1227.75 421.33 Q 1231.85 420.04 1234.96 417.50 Q 1237.76 416.27 1245.00 414.25 Q 1255.91 411.20 1258.81 409.31 Q 1260.94 407.93 1262.58 407.35 Q 1266.12 406.10 1266.15 406.08 Q 1268.31 405.00 1270.45 403.91 Q 1270.57 403.85 1273.79 401.72 Q 1275.23 400.76 1277.44 399.94 Q 1279.27 399.25 1281.96 397.17 Q 1284.98 394.84 1286.16 394.00 Q 1324.95 366.54 1336.25 319.25 Q 1337.37 314.55 1337.67 310.44 Q 1338.26 302.16 1338.27 302.09 Q 1342.63 265.31 1338.00 228.50 Q 1338.09 209.28 1332.25 191.00 Q 1331.01 184.65 1328.84 178.56 Q 1324.55 166.53 1318.50 155.29 Z"
     id="path128" />
  <path
     fill="rgb(157,140,79)"
     fill-opacity="1.000"
     d="M 89.08 174.13 Q 98.85 182.25 106.13 192.54 Q 109.09 196.74 111.31 202.51 Q 115.92 214.47 119.81 226.69 Q 122.27 232.13 123.56 237.94 Q 124.19 240.76 127.53 249.37 Q 129.21 253.72 131.36 260.83 Q 133.67 268.48 136.94 275.81 Q 138.69 284.21 142.13 292.09 Q 143.87 296.08 145.04 300.25 Q 146.54 305.58 147.63 308.47 Q 151.38 318.34 154.25 328.50 Q 157.95 337.25 160.31 346.44 Q 164.88 358.06 166.50 363.75 Q 168.69 371.43 170.43 375.56 Q 173.01 381.68 174.31 388.19 Q 176.55 394.26 179.00 400.25 Q 182.47 412.72 187.25 424.75 Q 189.68 434.23 193.93 443.06 Q 194.46 444.16 194.53 445.34 Q 194.63 446.86 194.89 447.60 Q 197.86 455.94 200.92 464.04 Q 201.44 465.41 201.49 466.87 Q 201.71 473.42 207.44 475.31 Q 208.75 475.74 209.04 477.50 Q 203.79 480.89 196.96 482.71 A 1.12 1.12 -13.6 0 1 195.58 481.87 Q 194.92 478.85 194.31 475.99 Q 193.72 473.23 192.56 470.29 Q 189.18 461.71 187.00 452.75 Q 181.46 439.12 181.00 437.25 Q 179.28 430.21 175.56 421.94 Q 174.31 419.14 173.43 415.53 Q 172.52 411.75 171.49 409.13 Q 168.65 401.93 166.45 394.52 Q 164.68 388.55 162.50 382.74 Q 160.82 378.26 158.80 371.42 Q 156.88 364.91 154.04 358.70 Q 153.15 356.74 152.73 354.66 Q 152.17 351.87 151.70 350.58 Q 147.58 339.48 144.06 328.19 Q 140.98 319.86 138.00 311.50 Q 135.12 301.25 130.99 291.44 Q 130.60 290.52 130.55 289.35 Q 130.50 288.26 130.31 287.19 Q 130.25 286.80 126.42 277.09 Q 124.95 273.35 123.08 266.83 Q 121.04 259.74 118.02 252.96 Q 116.98 250.60 116.51 248.08 Q 115.94 245.04 115.18 243.22 Q 111.20 233.77 108.69 223.81 Q 104.41 213.62 101.56 202.94 Q 96.48 191.12 95.81 188.69 Q 93.82 181.40 89.44 177.56 Q 87.05 175.48 82.50 175.75 Q 79.19 175.95 70.75 179.21 Q 71.01 178.52 72.06 177.81 Q 79.53 172.78 88.20 173.75 A 1.85 1.66 65.2 0 1 89.08 174.13 Z"
     id="path134" />
  <path
     fill="rgb(157,140,79)"
     fill-opacity="1.000"
     d="M 1145.06 181.17 Q 1147.15 185.23 1150.32 187.57 Q 1151.31 188.31 1151.88 189.40 Q 1154.28 194.00 1155.90 198.04 Q 1157.50 202.04 1158.17 207.20 Q 1159.90 220.66 1159.75 234.25 Q 1163.53 261.21 1166.75 288.25 Q 1166.34 295.06 1167.50 301.75 Q 1170.60 330.07 1174.75 358.25 Q 1174.76 364.81 1175.61 371.31 Q 1176.71 379.65 1176.71 379.71 Q 1178.63 397.01 1181.00 414.25 Q 1181.90 422.09 1182.00 430.00 Q 1185.50 451.76 1185.75 456.50 Q 1186.34 467.65 1188.75 478.54 Q 1181.71 479.72 1175.11 479.69 A 1.05 1.04 87.3 0 1 1174.07 478.74 Q 1172.18 458.58 1169.50 439.25 Q 1166.80 419.72 1166.75 419.25 Q 1166.91 408.79 1165.00 398.50 Q 1162.79 379.48 1160.25 360.50 Q 1160.21 350.41 1158.91 340.43 Q 1156.34 320.81 1153.79 301.19 Q 1152.63 292.27 1152.75 289.75 Q 1152.96 285.22 1152.25 280.75 Q 1150.74 267.87 1148.69 255.06 Q 1147.35 246.74 1145.75 229.00 Q 1145.99 220.88 1144.31 212.94 Q 1142.86 206.05 1141.04 184.50 Q 1141.87 184.59 1142.02 183.94 Q 1142.19 183.26 1142.21 183.22 Q 1142.75 181.98 1143.18 181.16 Q 1144.13 179.39 1145.06 181.17 Z"
     id="path136" />
  <path
     fill="rgb(157,140,79)"
     fill-opacity="1.000"
     d="M 1677.04 220.44 Q 1707.75 219.92 1738.44 220.55 A 1.27 1.27 67.5 0 1 1739.30 220.91 Q 1753.50 234.55 1763.48 251.54 Q 1763.95 252.34 1763.96 253.25 Q 1760.73 251.22 1757.94 247.81 Q 1755.45 244.77 1751.18 240.55 Q 1751.13 240.50 1749.99 239.28 Q 1748.09 237.25 1745.43 236.33 Q 1733.45 232.20 1720.75 232.66 Q 1711.60 233.00 1701.49 234.11 A 1.04 1.04 82.7 0 0 1700.58 235.29 Q 1700.98 238.13 1701.41 241.51 Q 1702.02 246.38 1705.06 250.19 Q 1707.69 254.25 1710.79 257.96 Q 1713.59 261.30 1712.00 265.46 Q 1710.53 264.60 1707.75 261.50 Q 1698.35 251.03 1690.00 239.70 Q 1683.11 230.36 1676.56 221.42 Q 1675.85 220.46 1677.04 220.44 Z"
     id="path138" />
  <path
     fill="rgb(157,140,79)"
     fill-opacity="1.000"
     d="M 1942.07 220.20 Q 1957.91 220.15 1973.76 220.50 A 0.49 0.48 12.2 0 1 1974.20 221.17 Q 1971.58 227.26 1965.79 230.50 Q 1965.19 229.78 1962.19 231.28 Q 1961.05 231.84 1959.79 231.99 Q 1944.03 233.89 1928.25 235.26 Q 1923.38 235.68 1920.75 237.75 Q 1917.64 240.20 1909.06 250.31 Q 1890.54 274.82 1871.94 299.27 Q 1871.88 299.35 1863.09 311.19 Q 1854.12 323.26 1843.40 335.38 Q 1841.72 337.27 1839.19 337.22 Q 1835.28 337.13 1830.42 336.35 Q 1827.78 335.92 1825.96 334.81 Q 1823.78 333.47 1822.25 331.75 Q 1818.98 328.08 1816.06 322.88 Q 1815.85 322.51 1815.37 322.19 Q 1814.48 321.61 1814.25 320.54 Q 1816.04 321.01 1815.45 319.45 Q 1815.25 318.91 1815.30 318.50 Q 1815.58 316.18 1816.78 318.40 Q 1818.09 320.83 1819.92 322.89 A 1.40 0.37 86.4 0 1 1820.21 323.76 L 1820.37 324.73 A 0.72 0.56 -3.7 0 0 1821.06 325.20 L 1828.44 325.22 A 1.23 1.21 -74.0 0 0 1829.48 324.63 Q 1830.53 322.86 1832.45 321.97 Q 1834.07 321.21 1834.23 319.51 A 1.97 1.25 77.5 0 1 1834.56 318.60 Q 1836.51 316.16 1838.94 314.19 Q 1856.94 289.89 1875.48 266.00 Q 1889.33 248.16 1902.69 229.94 Q 1904.68 227.78 1906.02 224.56 A 2.12 2.12 -79.9 0 1 1907.88 223.26 Q 1910.00 223.15 1911.93 222.65 Q 1919.35 220.70 1926.94 220.28 Q 1927.54 220.25 1942.07 220.20 Z"
     id="path140" />
  <path
     fill="rgb(240,205,95)"
     fill-opacity="1.000"
     d="M 1965.79 230.50 Q 1911.98 300.46 1856.82 369.87 Q 1855.68 371.31 1856.75 372.80 Q 1859.18 376.15 1862.03 379.83 Q 1862.76 380.77 1863.77 383.09 Q 1864.53 384.84 1865.94 386.19 Q 1866.88 387.09 1867.41 387.92 Q 1868.04 388.88 1868.75 389.79 Q 1870.05 395.41 1873.44 400.06 Q 1906.60 443.06 1939.50 486.26 Q 1945.97 494.75 1946.58 495.64 Q 1949.89 500.52 1952.32 505.96 A 0.35 0.35 76.4 0 1 1952.02 506.46 Q 1929.33 507.56 1907.57 505.51 A 1.74 1.73 -19.7 0 1 1906.51 505.01 Q 1901.85 500.37 1897.82 495.18 Q 1883.89 477.23 1869.97 459.26 Q 1851.55 435.47 1829.69 414.81 Q 1827.16 412.97 1824.87 410.84 A 0.50 0.44 38.5 0 0 1824.16 410.87 L 1822.04 414.00 Q 1811.71 428.15 1808.56 432.06 Q 1779.92 467.64 1752.20 503.95 Q 1751.34 505.08 1750.00 505.54 Q 1730.87 508.18 1711.74 505.57 A 0.31 0.31 -68.7 0 1 1711.53 505.09 Q 1714.67 500.50 1718.94 496.94 Q 1777.75 419.72 1783.81 412.31 Q 1791.17 403.33 1798.27 393.16 Q 1799.20 391.83 1799.30 390.21 Q 1799.78 382.93 1799.39 375.10 Q 1799.21 371.61 1797.85 368.79 Q 1795.46 363.85 1791.98 359.52 Q 1774.16 337.40 1756.94 314.81 Q 1751.78 308.05 1742.75 303.79 L 1712.00 265.46 Q 1713.59 261.30 1710.79 257.96 Q 1707.69 254.25 1705.06 250.19 Q 1702.02 246.38 1701.41 241.51 Q 1700.98 238.13 1700.58 235.29 A 1.04 1.04 82.7 0 1 1701.49 234.11 Q 1711.60 233.00 1720.75 232.66 Q 1733.45 232.20 1745.43 236.33 Q 1748.09 237.25 1749.99 239.28 Q 1751.13 240.50 1751.18 240.55 Q 1755.45 244.77 1757.94 247.81 Q 1760.73 251.22 1763.96 253.25 L 1812.95 316.61 A 1.67 1.29 -70.9 0 1 1813.25 317.50 Q 1813.30 319.16 1814.25 320.54 Q 1814.48 321.61 1815.37 322.19 Q 1815.85 322.51 1816.06 322.88 Q 1818.98 328.08 1822.25 331.75 Q 1823.78 333.47 1825.96 334.81 Q 1827.78 335.92 1830.42 336.35 Q 1835.28 337.13 1839.19 337.22 Q 1841.72 337.27 1843.40 335.38 Q 1854.12 323.26 1863.09 311.19 Q 1871.88 299.35 1871.94 299.27 Q 1890.54 274.82 1909.06 250.31 Q 1917.64 240.20 1920.75 237.75 Q 1923.38 235.68 1928.25 235.26 Q 1944.03 233.89 1959.79 231.99 Q 1961.05 231.84 1962.19 231.28 Q 1965.19 229.78 1965.79 230.50 Z"
     id="path142" />
  <path
     fill="rgb(157,140,79)"
     fill-opacity="1.000"
     d="M 457.75 237.28 Q 463.09 237.26 468.42 237.25 Q 475.39 237.24 479.04 237.80 Q 488.48 239.25 497.81 243.94 Q 504.10 247.10 509.07 250.90 Q 513.19 254.04 518.86 259.71 Q 533.25 274.10 541.56 292.94 Q 543.38 297.05 545.71 307.75 L 539.21 309.89 A 1.26 0.98 -87.4 0 0 538.51 310.71 Q 536.92 316.51 535.81 322.39 Q 534.26 330.56 533.21 334.09 Q 527.66 352.59 517.94 367.69 Q 510.33 379.49 497.69 387.09 Q 492.89 389.97 490.14 391.18 Q 486.18 392.93 481.81 393.56 Q 471.52 397.83 460.52 396.15 Q 455.03 395.31 448.56 393.19 Q 447.02 392.68 445.00 392.73 A 1.70 1.66 -29.1 0 1 444.08 392.48 Q 442.04 391.21 439.77 390.47 Q 437.88 389.85 436.25 388.67 Q 434.11 387.10 431.56 386.20 Q 427.14 384.63 423.35 381.91 Q 423.25 381.84 421.00 379.75 Q 419.79 378.62 418.21 378.07 Q 416.67 377.54 416.08 376.90 Q 415.20 375.94 414.72 374.76 Q 413.74 372.31 413.16 371.54 Q 410.67 368.19 408.25 364.79 Q 408.98 364.56 409.33 364.97 Q 409.73 365.44 409.75 365.45 Q 413.51 368.43 417.83 370.49 Q 418.43 370.77 419.90 371.01 Q 421.04 371.20 421.95 371.85 Q 424.27 373.52 424.47 373.62 Q 427.51 375.12 430.41 376.86 Q 431.83 377.72 433.43 377.94 Q 435.51 378.22 436.46 378.60 Q 456.46 386.59 475.51 379.54 Q 484.45 376.23 492.61 369.39 Q 506.67 357.61 513.92 340.11 Q 517.18 332.23 520.00 322.50 Q 521.33 317.89 521.25 313.75 Q 521.25 313.75 521.46 292.50 Q 521.55 284.03 519.62 275.16 A 0.82 0.78 83.0 0 0 518.83 274.51 L 507.90 274.96 A 2.98 2.55 -71.7 0 0 505.72 276.28 Q 501.93 282.03 499.56 287.56 Q 498.55 289.94 497.29 291.25 Q 497.60 288.98 498.65 286.99 Q 499.76 284.88 500.11 283.22 Q 500.88 279.58 502.49 275.90 Q 503.20 274.29 504.85 273.98 L 520.39 271.06 Q 523.13 270.54 521.07 268.70 Q 512.66 261.16 502.39 256.68 Q 499.01 255.21 496.38 255.52 Q 493.21 255.89 490.41 257.73 A 0.68 0.65 66.2 0 0 490.14 258.48 Q 493.13 268.83 493.25 270.25 Q 493.66 275.20 490.36 278.23 Q 487.95 280.43 487.24 281.37 Q 484.31 285.27 482.94 285.94 Q 480.25 287.23 478.94 289.44 Q 477.78 291.39 476.52 292.83 Q 474.45 295.22 473.97 296.09 Q 470.19 302.89 471.65 311.67 A 0.90 0.76 -8.2 0 0 472.63 312.28 L 476.50 311.79 Q 472.00 315.67 466.58 314.76 Q 464.88 314.48 462.23 313.12 Q 460.36 312.16 458.05 310.98 A 1.97 1.95 -78.7 0 1 456.99 309.37 Q 456.47 301.71 457.14 294.00 Q 457.51 289.76 459.21 286.46 Q 463.46 278.21 471.06 272.56 Q 475.31 270.29 478.83 267.02 A 1.14 1.11 69.4 0 0 479.19 266.19 Q 479.24 259.56 478.03 253.05 A 0.75 0.73 0.7 0 0 477.44 252.46 Q 473.15 251.58 468.75 251.71 Q 471.28 251.48 473.81 251.31 Q 476.73 250.97 478.45 248.68 Q 479.05 247.87 478.06 248.03 Q 471.26 249.16 464.37 250.45 Q 464.36 250.46 458.61 251.39 Q 453.35 252.24 448.33 254.12 Q 442.40 256.35 436.31 258.06 Q 426.53 262.15 416.93 266.66 Q 395.64 276.65 378.52 292.75 Q 369.18 301.54 362.19 309.44 Q 350.98 322.11 344.19 338.44 Q 340.44 347.46 336.50 362.25 Q 336.50 362.25 336.31 410.50 Q 336.30 413.57 337.25 417.50 Q 340.43 430.63 345.62 441.44 Q 352.24 455.23 363.29 465.73 Q 363.34 465.77 365.24 467.74 Q 367.35 469.91 370.19 471.06 Q 377.07 475.67 384.75 478.71 Q 377.68 478.30 374.25 477.00 Q 369.61 475.25 363.72 471.50 Q 358.65 468.28 354.32 464.34 Q 336.95 448.56 328.90 426.35 Q 327.57 422.68 326.23 419.35 Q 324.84 415.87 323.69 412.31 Q 322.43 409.29 322.50 406.00 Q 320.56 382.27 322.07 358.53 Q 322.52 351.31 324.28 345.31 Q 326.28 338.46 329.44 330.19 Q 336.12 312.66 347.94 299.19 Q 353.47 292.88 362.01 284.51 Q 384.55 262.40 415.44 247.94 Q 420.62 245.51 424.06 244.31 Q 429.34 242.48 429.36 242.47 Q 443.02 237.34 457.75 237.28 Z"
     id="path144" />
  <path
     fill="rgb(240,205,95)"
     fill-opacity="1.000"
     d="M 478.06 248.03 Q 479.05 247.87 478.45 248.68 Q 476.73 250.97 473.81 251.31 Q 471.28 251.48 468.75 251.71 Q 459.99 251.44 452.04 255.08 Q 447.68 257.08 443.06 258.31 Q 435.29 262.11 428.00 266.74 Q 408.10 279.38 397.35 300.39 Q 388.57 317.52 391.89 336.21 Q 392.82 341.42 393.79 344.26 Q 395.09 348.09 397.56 351.69 Q 402.72 359.21 408.25 364.79 Q 410.67 368.19 413.16 371.54 Q 413.74 372.31 414.72 374.76 Q 415.20 375.94 416.08 376.90 Q 416.67 377.54 418.21 378.07 Q 419.79 378.62 421.00 379.75 Q 423.25 381.84 423.35 381.91 Q 427.14 384.63 431.56 386.20 Q 434.11 387.10 436.25 388.67 Q 437.88 389.85 439.77 390.47 Q 442.04 391.21 444.08 392.48 A 1.70 1.66 -29.1 0 0 445.00 392.73 Q 447.02 392.68 448.56 393.19 Q 455.03 395.31 460.52 396.15 Q 471.52 397.83 481.81 393.56 Q 486.18 392.93 490.14 391.18 Q 492.89 389.97 497.69 387.09 Q 510.33 379.49 517.94 367.69 Q 527.66 352.59 533.21 334.09 Q 534.26 330.56 535.81 322.39 Q 536.92 316.51 538.51 310.71 A 1.26 0.98 -87.4 0 1 539.21 309.89 L 545.71 307.75 Q 546.59 309.65 546.99 311.75 Q 553.03 343.08 543.48 373.26 Q 543.45 373.37 541.81 378.92 Q 540.84 382.21 539.42 385.33 Q 537.25 390.12 537.21 390.23 Q 521.95 425.86 494.31 449.56 Q 473.34 467.54 444.06 477.31 Q 440.41 477.95 436.84 478.92 Q 424.03 482.40 410.75 482.62 Q 397.41 482.84 384.75 478.71 Q 377.07 475.67 370.19 471.06 Q 367.35 469.91 365.24 467.74 Q 363.34 465.77 363.29 465.73 Q 352.24 455.23 345.62 441.44 Q 340.43 430.63 337.25 417.50 Q 336.30 413.57 336.31 410.50 Q 336.50 362.25 336.50 362.25 Q 340.44 347.46 344.19 338.44 Q 350.98 322.11 362.19 309.44 Q 369.18 301.54 378.52 292.75 Q 395.64 276.65 416.93 266.66 Q 426.53 262.15 436.31 258.06 Q 442.40 256.35 448.33 254.12 Q 453.35 252.24 458.61 251.39 Q 464.36 250.46 464.37 250.45 Q 471.26 249.16 478.06 248.03 Z"
     id="path146" />
  <path
     fill="rgb(157,140,79)"
     fill-opacity="1.000"
     d="M 1000.04 248.53 Q 1008.91 249.09 1019.00 250.75 Q 1032.57 252.98 1043.06 257.19 Q 1052.49 259.49 1061.12 263.86 Q 1061.60 264.11 1064.95 265.22 Q 1067.53 266.07 1069.01 268.57 A 1.45 1.38 -57.6 0 1 1069.19 269.49 Q 1068.19 277.34 1061.29 281.25 L 1062.80 275.04 A 0.56 0.56 -72.3 0 0 1062.46 274.38 Q 1046.53 268.33 1038.81 266.69 Q 1009.34 260.41 979.23 262.52 Q 972.11 263.03 965.25 265.00 Q 959.81 265.13 954.79 267.03 Q 952.83 267.77 950.11 268.71 Q 947.74 269.53 945.53 270.75 Q 943.05 272.13 940.25 272.25 Q 937.56 273.23 935.06 274.59 Q 934.71 274.78 931.68 277.22 Q 930.07 278.52 927.75 279.25 Q 926.77 279.56 926.14 280.54 Q 925.36 281.76 924.92 282.08 Q 923.88 282.85 922.62 283.23 A 0.45 0.40 -10.2 0 0 922.30 283.64 Q 922.32 284.30 922.78 283.79 A 1.05 0.81 -68.5 0 1 923.35 283.45 Q 933.04 282.18 942.75 281.00 Q 954.46 278.92 965.50 280.25 Q 973.74 281.25 982.00 284.96 Q 980.75 285.53 979.56 285.14 Q 977.91 284.59 977.87 284.58 Q 970.25 283.17 962.50 282.75 Q 947.51 280.84 935.25 284.50 Q 931.78 285.54 929.61 285.98 Q 926.92 286.54 925.29 287.46 Q 916.17 292.60 915.56 292.81 Q 912.93 293.75 911.19 295.94 Q 906.50 300.12 902.31 304.79 Q 899.45 307.99 896.93 312.67 Q 894.65 316.88 892.31 321.06 Q 890.71 324.10 890.25 327.50 Q 887.70 338.94 885.75 350.50 Q 884.61 357.30 885.06 367.47 Q 885.33 373.51 887.14 382.26 Q 888.68 389.73 890.00 397.25 Q 892.55 407.48 898.67 415.87 Q 900.87 418.88 904.30 421.69 Q 907.46 424.27 910.74 426.63 A 0.60 0.59 -58.3 0 0 911.62 426.42 Q 913.41 423.00 916.77 420.50 Q 917.56 419.91 918.07 419.06 Q 919.92 415.96 921.86 414.35 Q 924.32 412.32 924.33 412.30 Q 925.53 410.94 926.10 409.40 Q 926.43 408.51 927.14 407.88 Q 930.93 404.48 932.81 401.31 Q 942.20 390.12 951.14 378.58 A 2.05 1.33 -2.7 0 1 951.92 378.02 Q 953.40 377.42 953.81 376.06 Q 954.90 372.46 958.18 370.69 Q 960.23 369.59 960.81 367.33 Q 961.29 365.44 962.64 364.26 Q 964.68 362.45 965.07 361.92 Q 972.91 351.19 982.06 341.56 Q 983.68 338.54 984.69 337.69 Q 988.54 334.43 991.06 330.06 Q 998.76 321.61 1005.06 312.06 Q 1007.77 308.64 1010.24 305.44 Q 1012.07 303.07 1009.50 301.55 Q 1006.61 299.83 1004.81 297.69 Q 1002.90 295.41 1005.44 296.56 Q 1006.82 297.19 1008.25 296.79 Q 1010.63 298.21 1012.56 300.19 Q 1016.67 302.44 1018.00 307.25 Q 1021.47 319.84 1013.04 328.42 Q 1011.67 329.81 1010.61 331.62 Q 1009.40 333.66 1008.06 334.81 Q 1005.36 337.14 1004.25 339.25 Q 1002.69 342.22 1000.94 343.69 Q 1000.55 344.02 979.78 369.78 Q 979.77 369.79 977.99 371.50 Q 976.83 372.61 975.81 374.81 Q 974.70 377.22 972.31 378.31 Q 970.05 379.35 969.31 382.06 Q 968.56 384.84 966.06 386.31 Q 965.51 386.64 945.44 411.60 Q 945.43 411.62 942.41 414.78 Q 940.76 416.51 939.65 418.92 Q 939.34 419.58 938.79 420.06 Q 935.38 423.03 933.32 426.21 Q 932.43 427.58 931.16 428.85 Q 929.94 430.07 928.96 431.52 A 1.20 1.15 -77.5 0 1 928.20 432.03 Q 921.62 433.28 915.01 432.22 Q 911.34 431.63 907.19 428.56 Q 902.95 425.44 900.15 422.04 Q 898.20 419.69 895.29 415.02 Q 893.02 411.39 891.31 407.44 Q 889.85 405.08 890.00 402.25 Q 887.17 392.40 885.75 386.50 Q 882.00 370.95 883.13 354.76 Q 883.45 350.21 884.94 342.33 Q 886.10 336.14 887.18 329.93 Q 888.12 324.51 888.01 319.26 Q 887.97 317.72 886.96 318.89 Q 883.64 322.73 880.75 326.71 Q 880.47 327.08 878.36 329.41 Q 877.10 330.81 876.49 332.57 Q 875.19 336.31 874.98 336.74 Q 871.90 342.84 869.50 349.25 Q 868.79 350.81 868.94 352.51 Q 868.99 353.03 868.82 353.47 Q 865.80 361.23 863.81 369.31 Q 861.86 374.87 862.00 380.75 Q 859.80 394.79 859.77 409.00 Q 859.74 419.63 862.00 430.00 Q 861.50 436.30 864.81 442.19 Q 868.01 447.87 869.69 455.31 Q 872.32 460.19 872.25 465.71 Q 862.54 459.97 857.44 450.56 Q 856.77 449.33 855.97 448.71 Q 855.50 448.34 855.35 447.99 Q 854.87 446.85 854.90 445.57 A 1.92 1.43 -65.9 0 0 854.69 444.63 Q 848.79 433.96 847.94 421.75 Q 846.37 399.12 848.00 376.50 Q 847.63 368.83 849.25 362.75 Q 850.29 358.86 854.13 346.86 Q 857.37 336.74 859.74 331.21 Q 866.58 315.24 877.04 301.40 Q 881.02 296.12 888.33 288.93 Q 894.35 283.02 900.29 277.04 Q 905.55 271.74 911.56 267.31 Q 913.21 265.08 915.94 265.15 A 1.87 1.35 23.2 0 0 916.87 264.94 Q 918.84 263.81 920.56 262.31 Q 934.15 256.10 948.44 251.69 Q 949.16 251.46 953.02 251.05 Q 955.20 250.81 957.58 250.39 Q 969.19 248.30 980.96 248.10 Q 990.62 247.94 1000.04 248.53 Z"
     id="path148" />
  <path
     fill="rgb(157,140,79)"
     fill-opacity="1.000"
     d="M 1582.62 249.92 Q 1588.99 250.25 1595.31 251.19 Q 1601.32 251.60 1606.91 253.87 Q 1612.84 256.27 1619.05 257.81 Q 1628.73 260.21 1638.31 266.44 Q 1641.30 268.38 1642.74 270.57 A 0.97 0.95 -49.3 0 1 1642.80 271.47 Q 1641.66 274.07 1639.29 275.75 Q 1635.49 274.09 1630.50 272.75 Q 1624.78 271.22 1618.25 268.49 Q 1613.76 266.62 1609.02 265.69 Q 1607.70 265.43 1599.51 264.20 Q 1588.22 262.50 1575.25 262.50 Q 1553.50 262.50 1553.50 262.50 Q 1541.75 263.56 1530.19 265.94 Q 1527.68 266.45 1514.00 272.00 Q 1512.77 272.07 1511.55 272.18 Q 1510.29 272.30 1509.24 272.92 Q 1502.65 276.79 1497.87 282.80 Q 1497.56 283.19 1498.06 283.14 Q 1506.37 282.40 1517.00 280.75 Q 1537.91 277.51 1557.81 285.44 Q 1559.24 286.01 1560.54 286.21 Q 1562.35 286.48 1563.22 286.87 Q 1568.54 289.21 1573.54 292.17 Q 1574.15 292.53 1576.27 293.18 Q 1577.77 293.63 1578.81 294.94 Q 1585.24 299.02 1590.98 304.01 Q 1594.13 306.76 1594.11 310.80 Q 1594.09 313.62 1594.09 313.71 Q 1594.41 319.05 1594.51 324.89 Q 1594.52 325.53 1595.01 325.11 Q 1597.55 322.93 1599.94 320.69 Q 1604.10 315.75 1608.75 311.25 Q 1609.44 310.58 1610.00 310.79 Q 1600.00 324.23 1592.44 333.19 Q 1547.04 386.95 1502.23 440.86 A 1.06 1.05 -54.8 0 0 1502.50 442.45 Q 1507.91 445.66 1513.81 446.83 Q 1518.14 447.70 1525.73 447.77 Q 1540.72 447.91 1554.94 442.69 Q 1556.32 442.18 1560.69 441.19 Q 1560.89 441.14 1572.03 436.37 Q 1579.18 433.30 1583.22 431.23 Q 1608.66 418.16 1626.81 397.56 Q 1628.93 395.15 1631.27 396.95 Q 1639.70 403.46 1645.84 412.17 Q 1645.88 412.23 1646.07 412.42 Q 1646.37 412.73 1646.21 413.25 Q 1638.37 413.91 1632.01 418.49 Q 1629.59 420.23 1622.44 425.94 Q 1604.87 439.96 1582.42 449.32 Q 1576.68 451.71 1571.00 454.25 Q 1557.96 457.62 1544.82 460.58 Q 1540.78 461.49 1534.25 461.75 Q 1527.88 462.00 1523.06 459.94 Q 1521.52 459.28 1508.94 449.31 Q 1504.93 447.14 1501.34 444.37 A 1.15 1.14 -74.6 0 1 1500.89 443.57 Q 1500.37 439.07 1497.79 435.41 A 0.97 0.94 -16.6 0 0 1497.00 435.00 Q 1492.22 434.94 1487.51 434.30 Q 1485.49 434.03 1483.93 432.71 Q 1475.26 425.40 1468.93 416.05 Q 1466.65 412.69 1465.08 407.97 Q 1462.84 401.20 1460.56 394.44 Q 1459.42 390.77 1458.75 387.00 Q 1458.87 384.17 1458.38 381.42 Q 1457.42 376.08 1457.42 376.03 Q 1454.72 352.05 1460.86 328.67 Q 1462.58 322.12 1464.04 315.33 Q 1464.36 313.84 1463.14 314.76 Q 1455.98 320.13 1452.25 328.15 Q 1449.78 333.48 1447.31 338.81 Q 1441.96 353.74 1438.07 369.11 Q 1437.29 372.20 1436.64 376.33 Q 1435.92 380.84 1435.31 383.56 Q 1431.45 400.84 1432.75 413.75 Q 1434.54 431.53 1436.56 439.94 Q 1439.80 453.35 1448.56 462.69 Q 1450.70 464.97 1452.05 466.99 Q 1453.38 468.99 1455.12 470.94 Q 1457.37 473.46 1458.50 476.71 Q 1452.17 473.09 1445.94 469.31 Q 1443.63 466.85 1441.12 464.61 Q 1438.04 461.87 1436.46 459.81 Q 1430.25 451.75 1426.23 442.50 Q 1422.90 434.84 1421.45 424.57 Q 1420.13 415.31 1419.82 405.96 Q 1419.54 397.81 1420.44 387.57 Q 1421.24 378.39 1422.50 369.25 Q 1423.18 362.37 1424.93 355.73 Q 1425.89 352.09 1428.83 342.60 Q 1433.14 328.64 1440.19 314.44 Q 1445.79 303.13 1452.90 294.65 Q 1473.47 270.11 1503.06 257.81 Q 1507.46 255.98 1516.64 253.04 Q 1521.53 251.46 1526.57 251.01 Q 1548.18 249.08 1569.87 249.56 Q 1579.77 249.78 1582.62 249.92 Z M 1578.81 298.19 Q 1574.34 294.09 1568.56 292.19 Q 1563.99 289.38 1558.96 287.58 Q 1558.51 287.42 1557.51 286.85 Q 1556.77 286.42 1555.94 286.29 Q 1553.81 285.95 1553.60 285.89 Q 1543.95 282.90 1533.98 281.40 Q 1528.98 280.65 1524.01 281.30 Q 1514.96 282.49 1506.20 285.00 Q 1496.53 287.76 1489.61 292.17 Q 1472.21 303.26 1464.55 323.42 Q 1459.05 337.91 1458.44 355.94 Q 1457.69 378.21 1463.48 397.56 Q 1465.79 405.26 1466.46 406.95 Q 1468.28 411.57 1471.50 415.50 Q 1472.84 418.40 1475.30 420.12 Q 1479.14 422.82 1479.28 422.94 Q 1481.11 424.54 1483.12 426.20 A 1.13 1.12 39.4 0 0 1484.70 426.05 Q 1490.17 419.45 1495.44 413.94 Q 1498.61 410.62 1565.46 328.20 Q 1575.40 315.95 1585.23 302.44 A 0.62 0.62 24.8 0 0 1584.87 301.47 Q 1581.48 300.65 1578.81 298.19 Z"
     id="path150" />
  <path
     fill="rgb(69,92,158)"
     fill-opacity="1.000"
     d="M 468.75 251.71 Q 473.15 251.58 477.44 252.46 A 0.75 0.73 0.7 0 1 478.03 253.05 Q 479.24 259.56 479.19 266.19 A 1.14 1.11 69.4 0 1 478.83 267.02 Q 475.31 270.29 471.06 272.56 Q 463.46 278.21 459.21 286.46 Q 457.51 289.76 457.14 294.00 Q 456.47 301.71 456.99 309.37 A 1.97 1.95 -78.7 0 0 458.05 310.98 Q 460.36 312.16 462.23 313.12 Q 464.88 314.48 466.58 314.76 Q 472.00 315.67 476.50 311.79 Q 479.83 309.80 483.13 307.76 Q 484.74 306.77 486.38 304.72 Q 488.54 302.03 491.51 300.19 Q 491.85 299.98 492.16 299.49 L 497.29 291.25 Q 498.55 289.94 499.56 287.56 Q 501.93 282.03 505.72 276.28 A 2.98 2.55 -71.7 0 1 507.90 274.96 L 518.83 274.51 A 0.82 0.78 83.0 0 1 519.62 275.16 Q 521.55 284.03 521.46 292.50 Q 521.25 313.75 521.25 313.75 Q 521.33 317.89 520.00 322.50 Q 517.18 332.23 513.92 340.11 Q 506.67 357.61 492.61 369.39 Q 484.45 376.23 475.51 379.54 Q 456.46 386.59 436.46 378.60 Q 435.51 378.22 433.43 377.94 Q 431.83 377.72 430.41 376.86 Q 427.51 375.12 424.47 373.62 Q 424.27 373.52 421.95 371.85 Q 421.04 371.20 419.90 371.01 Q 418.43 370.77 417.83 370.49 Q 413.51 368.43 409.75 365.45 Q 409.73 365.44 409.33 364.97 Q 408.98 364.56 408.25 364.79 Q 402.72 359.21 397.56 351.69 Q 395.09 348.09 393.79 344.26 Q 392.82 341.42 391.89 336.21 Q 388.57 317.52 397.35 300.39 Q 408.10 279.38 428.00 266.74 Q 435.29 262.11 443.06 258.31 Q 447.68 257.08 452.04 255.08 Q 459.99 251.44 468.75 251.71 Z"
     id="path152" />
  <path
     fill="rgb(240,205,95)"
     fill-opacity="1.000"
     d="M 502.39 256.68 Q 512.66 261.16 521.07 268.70 Q 523.13 270.54 520.39 271.06 L 504.85 273.98 Q 503.20 274.29 502.49 275.90 Q 500.88 279.58 500.11 283.22 Q 499.76 284.88 498.65 286.99 Q 497.60 288.98 497.29 291.25 L 492.16 299.49 Q 491.85 299.98 491.51 300.19 Q 488.54 302.03 486.38 304.72 Q 484.74 306.77 483.13 307.76 Q 479.83 309.80 476.50 311.79 L 472.63 312.28 A 0.90 0.76 -8.2 0 1 471.65 311.67 Q 470.19 302.89 473.97 296.09 Q 474.45 295.22 476.52 292.83 Q 477.78 291.39 478.94 289.44 Q 480.25 287.23 482.94 285.94 Q 484.31 285.27 487.24 281.37 Q 487.95 280.43 490.36 278.23 Q 493.66 275.20 493.25 270.25 Q 493.13 268.83 490.14 258.48 A 0.68 0.65 66.2 0 1 490.41 257.73 Q 493.21 255.89 496.38 255.52 Q 499.01 255.21 502.39 256.68 Z"
     id="path154" />
  <path
     fill="rgb(240,205,95)"
     fill-opacity="1.000"
     d="M 1038.81 266.69 Q 1046.53 268.33 1062.46 274.38 A 0.56 0.56 -72.3 0 1 1062.80 275.04 L 1061.29 281.25 Q 1060.10 283.54 1055.69 288.69 Q 1020.79 329.46 986.44 370.69 Q 983.76 372.47 982.68 375.48 Q 982.19 376.85 981.08 377.62 Q 979.26 378.87 979.04 379.11 Q 976.82 381.52 975.40 384.49 Q 975.19 384.92 974.78 385.23 Q 973.14 386.45 971.06 389.06 Q 963.76 398.24 948.03 416.48 Q 947.49 417.10 946.91 418.34 Q 946.43 419.34 945.69 420.19 Q 941.96 422.54 940.00 426.50 Q 933.33 433.55 927.02 440.93 A 0.58 0.46 45.9 0 0 927.09 441.61 L 930.31 445.35 A 1.90 0.66 55.8 0 0 931.37 446.14 L 937.25 447.04 L 939.61 449.94 A 1.65 1.63 -67.7 0 1 939.97 450.81 Q 940.26 453.57 942.16 455.37 Q 944.64 457.72 944.70 457.79 Q 947.22 460.55 949.75 461.25 Q 956.60 463.13 964.53 462.28 Q 968.56 461.85 978.94 459.55 Q 1021.44 450.13 1055.04 422.15 Q 1055.91 421.43 1057.62 420.69 Q 1059.04 420.08 1060.18 419.06 Q 1063.20 416.39 1063.22 416.37 Q 1064.99 415.10 1067.31 413.40 A 1.97 1.97 66.4 0 0 1068.08 411.43 Q 1067.62 409.02 1068.46 407.25 Q 1070.56 410.50 1073.15 413.34 Q 1074.31 414.60 1075.74 417.08 Q 1077.02 419.30 1079.05 420.97 Q 1081.17 422.72 1081.41 423.28 Q 1082.49 425.82 1084.42 427.79 Q 1088.45 431.89 1086.98 435.57 Q 1086.44 436.91 1082.55 441.06 Q 1075.19 448.90 1067.75 453.75 Q 1035.26 474.93 997.52 484.10 Q 966.66 491.60 932.00 489.50 Q 897.32 487.40 872.25 465.71 Q 872.32 460.19 869.69 455.31 Q 868.01 447.87 864.81 442.19 Q 861.50 436.30 862.00 430.00 Q 859.74 419.63 859.77 409.00 Q 859.80 394.79 862.00 380.75 Q 861.86 374.87 863.81 369.31 Q 865.80 361.23 868.82 353.47 Q 868.99 353.03 868.94 352.51 Q 868.79 350.81 869.50 349.25 Q 871.90 342.84 874.98 336.74 Q 875.19 336.31 876.49 332.57 Q 877.10 330.81 878.36 329.41 Q 880.47 327.08 880.75 326.71 Q 883.64 322.73 886.96 318.89 Q 887.97 317.72 888.01 319.26 Q 888.12 324.51 887.18 329.93 Q 886.10 336.14 884.94 342.33 Q 883.45 350.21 883.13 354.76 Q 882.00 370.95 885.75 386.50 Q 887.17 392.40 890.00 402.25 Q 889.85 405.08 891.31 407.44 Q 893.02 411.39 895.29 415.02 Q 898.20 419.69 900.15 422.04 Q 902.95 425.44 907.19 428.56 Q 911.34 431.63 915.01 432.22 Q 921.62 433.28 928.20 432.03 A 1.20 1.15 -77.5 0 0 928.96 431.52 Q 929.94 430.07 931.16 428.85 Q 932.43 427.58 933.32 426.21 Q 935.38 423.03 938.79 420.06 Q 939.34 419.58 939.65 418.92 Q 940.76 416.51 942.41 414.78 Q 945.43 411.62 945.44 411.60 Q 965.51 386.64 966.06 386.31 Q 968.56 384.84 969.31 382.06 Q 970.05 379.35 972.31 378.31 Q 974.70 377.22 975.81 374.81 Q 976.83 372.61 977.99 371.50 Q 979.77 369.79 979.78 369.78 Q 1000.55 344.02 1000.94 343.69 Q 1002.69 342.22 1004.25 339.25 Q 1005.36 337.14 1008.06 334.81 Q 1009.40 333.66 1010.61 331.62 Q 1011.67 329.81 1013.04 328.42 Q 1021.47 319.84 1018.00 307.25 Q 1016.67 302.44 1012.56 300.19 Q 1010.63 298.21 1008.25 296.79 L 1003.14 293.56 Q 1002.65 293.25 1002.26 293.23 Q 998.83 293.02 996.19 290.81 Q 992.02 288.95 988.12 286.58 A 1.81 1.71 -27.6 0 0 987.19 286.32 Q 984.44 286.32 982.00 284.96 Q 973.74 281.25 965.50 280.25 Q 954.46 278.92 942.75 281.00 Q 933.04 282.18 923.35 283.45 A 1.05 0.81 -68.5 0 0 922.78 283.79 Q 922.32 284.30 922.30 283.64 A 0.45 0.40 -10.2 0 1 922.62 283.23 Q 923.88 282.85 924.92 282.08 Q 925.36 281.76 926.14 280.54 Q 926.77 279.56 927.75 279.25 Q 930.07 278.52 931.68 277.22 Q 934.71 274.78 935.06 274.59 Q 937.56 273.23 940.25 272.25 Q 943.05 272.13 945.53 270.75 Q 947.74 269.53 950.11 268.71 Q 952.83 267.77 954.79 267.03 Q 959.81 265.13 965.25 265.00 Q 972.11 263.03 979.23 262.52 Q 1009.34 260.41 1038.81 266.69 Z"
     id="path156" />
  <path
     fill="rgb(240,205,95)"
     fill-opacity="1.000"
     d="M 1553.50 262.50 Q 1553.50 262.50 1575.25 262.50 Q 1588.22 262.50 1599.51 264.20 Q 1607.70 265.43 1609.02 265.69 Q 1613.76 266.62 1618.25 268.49 Q 1624.78 271.22 1630.50 272.75 Q 1635.49 274.09 1639.29 275.75 Q 1624.14 292.85 1610.00 310.79 Q 1609.44 310.58 1608.75 311.25 Q 1604.10 315.75 1599.94 320.69 Q 1597.55 322.93 1595.01 325.11 Q 1594.52 325.53 1594.51 324.89 Q 1594.41 319.05 1594.09 313.71 Q 1594.09 313.62 1594.11 310.80 Q 1594.13 306.76 1590.98 304.01 Q 1585.24 299.02 1578.81 294.94 Q 1577.77 293.63 1576.27 293.18 Q 1574.15 292.53 1573.54 292.17 Q 1568.54 289.21 1563.22 286.87 Q 1562.35 286.48 1560.54 286.21 Q 1559.24 286.01 1557.81 285.44 Q 1537.91 277.51 1517.00 280.75 Q 1506.37 282.40 1498.06 283.14 Q 1497.56 283.19 1497.87 282.80 Q 1502.65 276.79 1509.24 272.92 Q 1510.29 272.30 1511.55 272.18 Q 1512.77 272.07 1514.00 272.00 Q 1527.68 266.45 1530.19 265.94 Q 1541.75 263.56 1553.50 262.50 Z"
     id="path158" />
  <ellipse
     fill="rgb(157,140,79)"
     fill-opacity="1.000"
     cx="0"
     cy="0"
     rx="3.69"
     ry="0.33"
     transform="translate(590.49,278.41) rotate(90.6)"
     id="ellipse160" />
  <path
     fill="rgb(69,92,158)"
     fill-opacity="1.000"
     d="M 1533.98 281.40 Q 1543.95 282.90 1553.60 285.89 Q 1553.81 285.95 1555.94 286.29 Q 1556.77 286.42 1557.51 286.85 Q 1558.51 287.42 1558.96 287.58 Q 1563.99 289.38 1568.56 292.19 Q 1574.34 294.09 1578.81 298.19 Q 1581.48 300.65 1584.87 301.47 A 0.62 0.62 24.8 0 1 1585.23 302.44 Q 1575.40 315.95 1565.46 328.20 Q 1498.61 410.62 1495.44 413.94 Q 1490.17 419.45 1484.70 426.05 A 1.13 1.12 39.4 0 1 1483.12 426.20 Q 1481.11 424.54 1479.28 422.94 Q 1479.14 422.82 1475.30 420.12 Q 1472.84 418.40 1471.50 415.50 Q 1468.28 411.57 1466.46 406.95 Q 1465.79 405.26 1463.48 397.56 Q 1457.69 378.21 1458.44 355.94 Q 1459.05 337.91 1464.55 323.42 Q 1472.21 303.26 1489.61 292.17 Q 1496.53 287.76 1506.20 285.00 Q 1514.96 282.49 1524.01 281.30 Q 1528.98 280.65 1533.98 281.40 Z M 1543.48 311.54 Q 1538.41 307.59 1533.33 307.31 Q 1531.27 307.20 1524.64 307.96 Q 1520.24 308.46 1516.09 310.14 Q 1509.28 312.89 1505.06 315.31 Q 1499.23 318.66 1495.20 324.30 Q 1494.62 325.11 1491.15 330.55 Q 1488.23 335.12 1487.56 337.06 Q 1484.11 347.08 1483.72 357.56 Q 1483.42 365.69 1483.72 369.42 Q 1484.20 375.42 1486.77 381.04 A 0.36 0.36 -34.2 0 0 1487.35 381.15 Q 1491.59 376.94 1495.19 372.44 Q 1506.43 358.70 1517.56 344.86 Q 1524.79 335.87 1530.35 329.50 Q 1537.17 321.67 1543.73 314.49 Q 1545.20 312.88 1543.48 311.54 Z"
     id="path162" />
  <path
     fill="rgb(69,92,158)"
     fill-opacity="1.000"
     d="M 962.50 282.75 Q 970.25 283.17 977.87 284.58 Q 977.91 284.59 979.56 285.14 Q 980.75 285.53 982.00 284.96 Q 984.44 286.32 987.19 286.32 A 1.81 1.71 -27.6 0 1 988.12 286.58 Q 992.02 288.95 996.19 290.81 Q 998.83 293.02 1002.26 293.23 Q 1002.65 293.25 1003.14 293.56 L 1008.25 296.79 Q 1006.82 297.19 1005.44 296.56 Q 1002.90 295.41 1004.81 297.69 Q 1006.61 299.83 1009.50 301.55 Q 1012.07 303.07 1010.24 305.44 Q 1007.77 308.64 1005.06 312.06 Q 998.76 321.61 991.06 330.06 Q 988.54 334.43 984.69 337.69 Q 983.68 338.54 982.06 341.56 Q 972.91 351.19 965.07 361.92 Q 964.68 362.45 962.64 364.26 Q 961.29 365.44 960.81 367.33 Q 960.23 369.59 958.18 370.69 Q 954.90 372.46 953.81 376.06 Q 953.40 377.42 951.92 378.02 A 2.05 1.33 -2.7 0 0 951.14 378.58 Q 942.20 390.12 932.81 401.31 Q 930.93 404.48 927.14 407.88 Q 926.43 408.51 926.10 409.40 Q 925.53 410.94 924.33 412.30 Q 924.32 412.32 921.86 414.35 Q 919.92 415.96 918.07 419.06 Q 917.56 419.91 916.77 420.50 Q 913.41 423.00 911.62 426.42 A 0.60 0.59 -58.3 0 1 910.74 426.63 Q 907.46 424.27 904.30 421.69 Q 900.87 418.88 898.67 415.87 Q 892.55 407.48 890.00 397.25 Q 888.68 389.73 887.14 382.26 Q 885.33 373.51 885.06 367.47 Q 884.61 357.30 885.75 350.50 Q 887.70 338.94 890.25 327.50 Q 890.71 324.10 892.31 321.06 Q 894.65 316.88 896.93 312.67 Q 899.45 307.99 902.31 304.79 Q 906.50 300.12 911.19 295.94 Q 912.93 293.75 915.56 292.81 Q 916.17 292.60 925.29 287.46 Q 926.92 286.54 929.61 285.98 Q 931.78 285.54 935.25 284.50 Q 947.51 280.84 962.50 282.75 Z M 959.35 327.89 Q 961.47 325.77 963.96 323.54 Q 963.96 323.54 966.33 321.78 Q 968.66 320.06 969.23 317.06 Q 969.32 316.60 969.64 316.18 L 971.22 314.16 A 0.77 0.63 49.2 0 0 971.20 313.34 L 968.18 308.74 A 0.96 0.78 70.0 0 0 967.44 308.30 L 950.50 308.75 Q 949.65 308.77 946.50 310.50 L 940.69 313.69 Q 938.75 314.75 937.75 315.00 Q 934.97 315.70 932.85 317.58 Q 930.31 319.83 927.13 322.00 Q 926.70 322.30 926.37 322.70 Q 924.17 325.36 922.61 327.46 Q 922.15 328.08 920.70 329.33 Q 919.65 330.23 919.06 331.56 Q 918.96 333.06 918.26 334.30 Q 917.92 334.89 916.36 336.34 Q 915.02 337.58 914.08 339.15 Q 913.28 340.46 913.35 342.54 Q 913.55 349.15 911.44 355.44 Q 911.11 362.96 911.25 370.50 Q 911.15 376.77 914.88 382.41 A 0.69 0.69 49.0 0 0 915.98 382.49 Q 927.80 369.05 938.84 356.21 Q 939.71 355.21 940.65 353.42 Q 941.60 351.60 942.69 350.69 Q 946.19 347.73 947.36 344.22 Q 947.51 343.76 947.87 343.41 Q 949.49 341.84 951.56 338.56 Q 954.52 333.89 960.22 330.46 Q 960.90 330.06 960.92 329.70 Q 960.96 329.13 959.66 328.89 Q 958.57 328.68 959.35 327.89 Z"
     id="path164" />
  <path
     fill="rgb(157,140,79)"
     fill-opacity="1.000"
     d="M 788.50 292.50 Q 795.86 293.15 803.25 293.25 Q 808.77 293.32 815.74 295.02 Q 818.25 295.63 820.58 297.08 Q 822.84 298.49 825.07 299.95 Q 827.27 301.38 825.03 302.73 Q 821.62 304.81 818.19 307.44 Q 817.32 308.11 815.29 308.50 Q 814.27 308.04 811.50 308.00 Q 787.74 307.68 786.25 308.25 Q 778.98 311.03 777.31 312.31 Q 774.20 314.70 770.31 315.31 Q 758.90 321.37 758.69 321.44 Q 753.04 323.09 748.16 326.40 Q 744.92 328.60 741.06 329.31 Q 736.04 332.17 730.77 334.50 Q 721.54 338.56 720.26 339.20 Q 711.83 343.34 703.56 347.81 Q 692.97 352.47 692.81 352.56 Q 687.51 355.75 681.50 357.24 Q 679.54 357.73 677.72 358.54 Q 675.08 359.73 673.98 359.75 Q 671.36 359.81 669.51 357.70 A 1.82 1.80 77.7 0 0 668.71 357.18 Q 665.04 356.04 662.42 351.23 A 2.51 2.50 -8.2 0 0 660.74 349.98 Q 658.89 349.58 658.29 348.00 Q 665.73 344.40 673.69 342.19 Q 678.69 339.81 685.35 336.65 Q 686.70 336.00 688.19 335.88 Q 689.49 335.77 691.10 334.57 Q 692.69 333.40 693.75 332.90 Q 698.14 330.86 698.75 330.25 Q 700.18 328.84 702.19 328.90 Q 702.73 328.92 703.14 328.70 Q 712.79 323.63 713.06 323.31 Q 714.34 321.85 716.25 321.95 Q 716.80 321.98 717.20 321.78 Q 723.53 318.62 728.19 315.69 Q 729.54 314.83 731.00 314.94 A 1.95 1.27 23.3 0 0 731.94 314.78 Q 740.62 310.46 741.06 310.06 Q 743.49 307.88 746.75 307.97 A 1.40 1.29 25.2 0 0 747.64 307.69 Q 749.93 305.87 752.59 304.67 Q 753.82 304.12 755.91 302.59 Q 758.11 300.98 761.00 300.99 A 1.79 1.53 24.7 0 0 761.92 300.73 Q 769.10 296.13 777.06 293.06 Q 782.79 292.93 788.50 292.50 Z"
     id="path166" />
  <path
     fill="rgb(157,140,79)"
     fill-opacity="1.000"
     d="M 1742.75 303.79 Q 1751.78 308.05 1756.94 314.81 Q 1774.16 337.40 1791.98 359.52 Q 1795.46 363.85 1797.85 368.79 Q 1799.21 371.61 1799.39 375.10 Q 1799.78 382.93 1799.30 390.21 Q 1799.20 391.83 1798.27 393.16 Q 1791.17 403.33 1783.81 412.31 Q 1777.75 419.72 1718.94 496.94 Q 1714.67 500.50 1711.53 505.09 A 0.31 0.31 -68.7 0 0 1711.74 505.57 Q 1730.87 508.18 1750.00 505.54 Q 1749.49 509.62 1745.25 508.75 Q 1735.28 509.77 1725.25 509.64 Q 1708.24 509.40 1691.62 508.76 Q 1690.33 508.71 1691.02 507.63 Q 1696.99 498.19 1703.87 489.49 Q 1710.11 481.61 1710.15 481.56 Q 1743.03 438.95 1775.69 396.19 Q 1782.69 387.25 1789.19 377.94 Q 1794.40 372.17 1789.81 366.44 Q 1774.70 347.54 1759.65 328.59 Q 1750.73 317.35 1743.02 305.26 Q 1742.79 304.91 1742.76 304.57 Q 1742.72 304.18 1742.75 303.79 Z"
     id="path168" />
  <path
     fill="rgb(240,205,95)"
     fill-opacity="1.000"
     d="M 1464.04 315.33 Q 1462.58 322.12 1460.86 328.67 Q 1454.72 352.05 1457.42 376.03 Q 1457.42 376.08 1458.38 381.42 Q 1458.87 384.17 1458.75 387.00 Q 1459.42 390.77 1460.56 394.44 Q 1462.84 401.20 1465.08 407.97 Q 1466.65 412.69 1468.93 416.05 Q 1475.26 425.40 1483.93 432.71 Q 1485.49 434.03 1487.51 434.30 Q 1492.22 434.94 1497.00 435.00 A 0.97 0.94 -16.6 0 1 1497.79 435.41 Q 1500.37 439.07 1500.89 443.57 A 1.15 1.14 -74.6 0 0 1501.34 444.37 Q 1504.93 447.14 1508.94 449.31 Q 1521.52 459.28 1523.06 459.94 Q 1527.88 462.00 1534.25 461.75 Q 1540.78 461.49 1544.82 460.58 Q 1557.96 457.62 1571.00 454.25 Q 1576.68 451.71 1582.42 449.32 Q 1604.87 439.96 1622.44 425.94 Q 1629.59 420.23 1632.01 418.49 Q 1638.37 413.91 1646.21 413.25 L 1656.56 426.47 A 4.34 2.92 35.1 0 1 1657.49 428.89 L 1657.31 438.75 A 1.61 1.06 -33.3 0 1 1656.93 439.63 Q 1651.94 445.52 1643.94 451.19 Q 1618.66 469.07 1590.94 477.94 Q 1580.45 481.15 1570.00 484.50 Q 1568.09 484.63 1566.20 484.84 Q 1564.56 485.02 1562.46 485.48 Q 1537.43 491.03 1511.74 490.21 Q 1494.88 489.67 1478.75 484.75 Q 1475.20 484.41 1472.06 482.69 Q 1467.37 480.50 1462.70 478.29 Q 1462.19 478.05 1460.56 477.74 Q 1459.42 477.53 1458.50 476.71 Q 1457.37 473.46 1455.12 470.94 Q 1453.38 468.99 1452.05 466.99 Q 1450.70 464.97 1448.56 462.69 Q 1439.80 453.35 1436.56 439.94 Q 1434.54 431.53 1432.75 413.75 Q 1431.45 400.84 1435.31 383.56 Q 1435.92 380.84 1436.64 376.33 Q 1437.29 372.20 1438.07 369.11 Q 1441.96 353.74 1447.31 338.81 Q 1449.78 333.48 1452.25 328.15 Q 1455.98 320.13 1463.14 314.76 Q 1464.36 313.84 1464.04 315.33 Z"
     id="path174" />
  <path
     fill="rgb(157,140,79)"
     fill-opacity="1.000"
     d="M 1868.75 389.79 Q 1876.12 396.72 1882.11 404.84 Q 1886.60 410.93 1886.62 410.95 Q 1921.74 456.91 1956.91 502.83 Q 1959.07 505.65 1958.31 510.43 A 1.25 1.25 -85.9 0 1 1957.09 511.49 Q 1941.33 511.76 1925.91 510.29 Q 1921.00 509.82 1915.58 509.45 Q 1910.41 509.08 1905.25 508.50 Q 1902.14 509.09 1900.44 507.06 Q 1892.94 498.12 1876.09 476.44 Q 1855.88 450.45 1835.06 424.94 Q 1831.49 420.41 1827.56 416.19 Q 1825.60 413.39 1822.04 414.00 L 1824.16 410.87 A 0.50 0.44 38.5 0 1 1824.87 410.84 Q 1827.16 412.97 1829.69 414.81 Q 1851.55 435.47 1869.97 459.26 Q 1883.89 477.23 1897.82 495.18 Q 1901.85 500.37 1906.51 505.01 A 1.74 1.73 -19.7 0 0 1907.57 505.51 Q 1929.33 507.56 1952.02 506.46 A 0.35 0.35 76.4 0 0 1952.32 505.96 Q 1949.89 500.52 1946.58 495.64 Q 1945.97 494.75 1939.50 486.26 Q 1906.60 443.06 1873.44 400.06 Q 1870.05 395.41 1868.75 389.79 Z"
     id="path178" />
  <path
     fill="rgb(157,140,79)"
     fill-opacity="1.000"
     d="M 714.79 391.75 Q 719.83 394.08 724.06 397.69 Q 728.85 400.43 733.32 403.66 Q 841.99 482.20 845.19 484.81 Q 848.96 487.89 853.83 492.69 Q 854.70 493.54 855.23 494.64 Q 856.50 497.32 857.42 500.16 Q 858.23 502.63 858.65 505.93 Q 860.70 521.86 859.94 539.06 Q 859.84 541.35 857.80 540.31 Q 850.47 536.56 843.81 532.19 Q 837.59 527.12 831.09 522.42 Q 820.67 514.87 820.61 514.83 Q 749.78 462.30 678.83 409.91 Q 677.43 408.88 676.75 407.29 L 677.23 407.23 A 1.47 0.60 -16.3 0 1 678.10 407.32 L 691.43 414.91 Q 692.64 415.60 692.83 415.72 Q 702.80 422.11 711.69 428.56 Q 775.01 476.12 838.72 523.17 Q 844.00 527.07 847.20 528.78 Q 851.60 531.13 856.54 532.85 A 0.54 0.53 -79.9 0 0 857.25 532.35 Q 857.30 519.90 854.93 508.80 Q 854.42 506.40 852.75 504.61 Q 843.66 494.89 832.81 486.69 Q 823.41 479.58 769.69 440.06 Q 749.67 426.56 730.26 412.20 Q 728.91 411.20 727.15 409.35 Q 725.50 407.61 723.94 406.56 Q 721.11 404.66 720.25 401.75 Q 717.50 396.76 714.79 391.75 Z"
     id="path180" />
  <path
     fill="rgb(157,140,79)"
     fill-opacity="1.000"
     d="M 1057.72 395.89 A 0.63 0.62 48.7 0 1 1058.59 395.95 Q 1062.27 399.98 1065.75 403.75 Q 1067.97 406.15 1068.46 407.25 Q 1067.62 409.02 1068.08 411.43 A 1.97 1.97 66.4 0 1 1067.31 413.40 Q 1064.99 415.10 1063.22 416.37 Q 1063.20 416.39 1060.18 419.06 Q 1059.04 420.08 1057.62 420.69 Q 1055.91 421.43 1055.04 422.15 Q 1021.44 450.13 978.94 459.55 Q 968.56 461.85 964.53 462.28 Q 956.60 463.13 949.75 461.25 Q 947.22 460.55 944.70 457.79 Q 944.64 457.72 942.16 455.37 Q 940.26 453.57 939.97 450.81 A 1.65 1.63 -67.7 0 0 939.61 449.94 L 937.25 447.04 Q 938.24 446.77 940.75 447.25 Q 951.95 449.41 964.95 446.76 Q 1001.47 439.31 1031.56 418.05 Q 1036.82 414.33 1044.81 407.20 Q 1051.23 401.46 1057.72 395.89 Z"
     id="path182" />
</svg>
